<?xml version="1.0" encoding="UTF-8"?><svg id="Layer_1" xmlns="http://www.w3.org/2000/svg" width="22.88mm" height="22.88mm" viewBox="0 0 64.86 64.86"><defs><style>.cls-1{fill:#cfcfea;}.cls-2{fill:#2a2c24;}.cls-3{fill:none;stroke:#2a2c24;stroke-dasharray:0 0 12.23 12.23;stroke-miterlimit:10;stroke-width:3px;}</style></defs><g><circle class="cls-1" cx="32.43" cy="32.43" r="30.93"/><circle class="cls-3" cx="32.43" cy="32.43" r="30.93"/></g><g><path class="cls-2" d="M22.37,41.01v-13.98l-6.21,10.82h-.98l-6.24-10.82v13.98h-1.66V23.98h1.7l6.67,11.66,6.67-11.66h1.7v17.03h-1.66Z"/><path class="cls-2" d="M41.13,36.62c0,.64-.13,1.23-.38,1.76-.26,.54-.6,1-1.03,1.39-.43,.39-.94,.7-1.51,.91-.58,.22-1.19,.32-1.85,.32h-8.01V23.98h8.18c.59,0,1.13,.13,1.61,.38,.48,.26,.89,.59,1.22,1,.34,.41,.6,.87,.78,1.39,.18,.52,.28,1.04,.28,1.57,0,.86-.22,1.65-.65,2.36-.43,.71-1.03,1.24-1.8,1.59,.98,.29,1.75,.82,2.32,1.61,.57,.78,.85,1.7,.85,2.73Zm-11.13-11.18v6.28h5.85c.42,0,.8-.09,1.16-.26,.36-.18,.67-.41,.94-.7,.26-.29,.47-.62,.61-1,.14-.38,.22-.77,.22-1.19s-.07-.84-.2-1.22-.33-.72-.58-1c-.25-.28-.54-.5-.89-.67-.34-.17-.72-.25-1.12-.25h-6Zm9.45,10.89c0-.42-.07-.82-.22-1.21-.14-.39-.35-.74-.61-1.03s-.58-.54-.94-.72-.75-.28-1.16-.28h-6.52v6.45h6.36c.43,0,.84-.09,1.22-.26,.38-.18,.71-.41,.98-.71,.27-.3,.49-.64,.65-1.03,.16-.39,.24-.8,.24-1.21Z"/><path class="cls-2" d="M57.8,23.98v17.03h-1.68v-7.96h-10.1v7.96h-1.66V23.98h1.66v7.58h10.1v-7.58h1.68Z"/></g></svg>