<?xml version="1.0" encoding="UTF-8"?><svg id="Layer_1" xmlns="http://www.w3.org/2000/svg" width="21.82mm" height="21.82mm" viewBox="0 0 61.86 61.86"><defs><style>.cls-1{fill:#e2eb98;}.cls-2{fill:#cfcfea;}.cls-3{fill:#2a2c24;}</style></defs><g><circle class="cls-2" cx="30.93" cy="30.93" r="29.97"/><path class="cls-3" d="M30.93,61.86C13.87,61.86,0,47.98,0,30.93S13.87,0,30.93,0s30.93,13.87,30.93,30.93-13.87,30.93-30.93,30.93ZM30.93,1.92C14.93,1.92,1.92,14.94,1.92,30.93s13.01,29,29,29,29.01-13.01,29.01-29S46.92,1.92,30.93,1.92Z"/></g><g><path class="cls-1" d="M20.31,39.25v-12.22l-4.13,9.1h-1.69l-4.13-9.1v12.22h-3.11V20.79h3.34l4.74,10.5,4.78-10.5h3.32v18.46h-3.11Z"/><path class="cls-1" d="M39.66,34.49c0,.78-.14,1.47-.41,2.05-.27,.59-.64,1.08-1.12,1.48-.47,.4-1.02,.7-1.65,.91-.62,.21-1.29,.31-2,.31h-7.74V20.79h8.57c.56,0,1.06,.14,1.51,.42,.45,.28,.83,.64,1.15,1.08s.56,.94,.73,1.51c.17,.56,.26,1.13,.26,1.7,0,.9-.2,1.75-.59,2.54-.39,.79-.96,1.37-1.71,1.75,.92,.31,1.64,.87,2.18,1.68,.53,.81,.8,1.82,.8,3.03Zm-9.79-10.63v4.65h4.15c.53,0,.97-.21,1.34-.62,.37-.42,.55-.99,.55-1.72s-.17-1.27-.51-1.69c-.34-.42-.76-.62-1.25-.62h-4.29Zm6.65,9.96c0-.33-.05-.65-.15-.95-.1-.3-.23-.57-.39-.79s-.36-.4-.59-.53c-.23-.13-.47-.19-.74-.19h-4.78v4.86h4.62c.28,0,.55-.06,.8-.18,.25-.12,.46-.29,.64-.51,.18-.22,.32-.47,.43-.77,.11-.29,.16-.61,.16-.94Z"/><path class="cls-1" d="M55.56,20.79v18.46h-3.09v-7.88h-7.26v7.88h-3.11V20.79h3.11v7.46h7.26v-7.46h3.09Z"/></g></svg>