<?xml version="1.0" encoding="UTF-8"?><svg id="Layer_1" xmlns="http://www.w3.org/2000/svg" width="36.19mm" height="36.19mm" viewBox="0 0 102.59 102.59"><defs><style>.cls-1{fill:#e2eb98;}.cls-2{fill:#3f3244;}</style></defs><path class="cls-2" d="M51.29,102.59C23.01,102.59,0,79.58,0,51.29S23.01,0,51.29,0s51.29,23.01,51.29,51.29-23.01,51.29-51.29,51.29Zm0-99.59C24.66,3,3,24.67,3,51.29s21.66,48.29,48.29,48.29,48.29-21.66,48.29-48.29S77.92,3,51.29,3Z"/><g><path class="cls-1" d="M33.33,63.84v-17.66l-6.88,13.15h-2.82l-6.88-13.15v17.66h-5.18v-26.67h5.56l7.89,15.18,7.96-15.18h5.52v26.67h-5.18Z"/><path class="cls-1" d="M65.56,56.97c0,1.13-.23,2.12-.68,2.97-.45,.85-1.07,1.57-1.86,2.14s-1.7,1.01-2.74,1.31c-1.04,.3-2.15,.45-3.32,.45h-12.89v-26.67h14.28c.93,0,1.77,.2,2.52,.6,.75,.4,1.39,.92,1.92,1.56s.93,1.37,1.22,2.18c.29,.81,.43,1.63,.43,2.46,0,1.3-.33,2.52-.98,3.66-.65,1.14-1.6,1.99-2.86,2.54,1.53,.45,2.74,1.26,3.63,2.42,.89,1.17,1.33,2.62,1.33,4.38Zm-16.3-15.37v6.73h6.91c.88,0,1.62-.3,2.24-.9,.61-.6,.92-1.43,.92-2.48s-.28-1.84-.85-2.44c-.56-.6-1.26-.9-2.08-.9h-7.14Zm11.08,14.39c0-.48-.08-.93-.24-1.37-.16-.44-.38-.82-.66-1.15-.28-.33-.6-.58-.98-.77-.38-.19-.79-.28-1.24-.28h-7.96v7.03h7.7c.48,0,.92-.09,1.33-.26,.41-.18,.77-.42,1.07-.73,.3-.31,.54-.68,.71-1.11,.17-.43,.26-.88,.26-1.35Z"/><path class="cls-1" d="M92.05,37.17v26.67h-5.15v-11.38h-12.1v11.38h-5.18v-26.67h5.18v10.78h12.1v-10.78h5.15Z"/></g></svg>