<?xml version="1.0" encoding="UTF-8"?><svg id="Layer_1" xmlns="http://www.w3.org/2000/svg" width="36.19mm" height="36.19mm" viewBox="0 0 102.59 102.59"><defs><style>.cls-1{fill:#fff;}.cls-2{fill:#3f3244;}.cls-3{fill:none;stroke:#3f3244;stroke-dasharray:0 0 12.03 12.03;stroke-miterlimit:10;stroke-width:3px;}</style></defs><g><circle class="cls-1" cx="51.29" cy="51.29" r="49.79"/><circle class="cls-3" cx="51.29" cy="51.29" r="49.79"/></g><g><path class="cls-2" d="M36.1,63.84v-21.9l-9.73,16.94h-1.54l-9.77-16.94v21.9h-2.59v-26.67h2.67l10.44,18.26,10.44-18.26h2.67v26.67h-2.59Z"/><path class="cls-2" d="M65.48,56.97c0,1-.2,1.92-.6,2.76-.4,.84-.94,1.57-1.62,2.18-.68,.61-1.47,1.09-2.37,1.43-.9,.34-1.87,.51-2.89,.51h-12.55v-26.67h12.81c.93,0,1.77,.2,2.52,.6,.75,.4,1.39,.92,1.92,1.56s.93,1.37,1.22,2.18c.29,.81,.43,1.63,.43,2.46,0,1.35-.34,2.59-1.01,3.7-.68,1.12-1.62,1.95-2.82,2.5,1.53,.45,2.74,1.29,3.63,2.52,.89,1.23,1.33,2.66,1.33,4.28Zm-17.43-17.51v9.84h9.17c.65,0,1.26-.14,1.82-.41s1.05-.64,1.47-1.09,.73-.97,.96-1.56c.23-.59,.34-1.21,.34-1.86s-.11-1.31-.32-1.92c-.21-.6-.51-1.12-.9-1.56-.39-.44-.85-.79-1.39-1.05-.54-.26-1.12-.39-1.75-.39h-9.39Zm14.8,17.06c0-.65-.11-1.28-.34-1.9-.23-.61-.54-1.15-.96-1.62-.41-.46-.9-.84-1.46-1.13-.56-.29-1.17-.43-1.82-.43h-10.22v10.11h9.96c.68,0,1.31-.14,1.92-.41,.6-.28,1.11-.64,1.54-1.11,.43-.46,.76-1,1.01-1.62,.25-.61,.38-1.25,.38-1.9Z"/><path class="cls-2" d="M91.59,37.17v26.67h-2.63v-12.47h-15.82v12.47h-2.59v-26.67h2.59v11.87h15.82v-11.87h2.63Z"/></g></svg>