<?xml version="1.0" encoding="UTF-8"?><svg id="Layer_1" xmlns="http://www.w3.org/2000/svg" width="1920" height="1080" xmlns:xlink="http://www.w3.org/1999/xlink" viewBox="0 0 1920 1080"><defs><style>.cls-1{fill:none;}.cls-2{fill:url(#linear-gradient);}.cls-3{fill:#f0f0d0;}.cls-4{fill:#fff;}.cls-5{fill:#fff9ee;}.cls-6{fill:#fefff6;}.cls-7{fill:#989898;}.cls-8{fill:#95212f;}.cls-9{fill:#8b6239;}.cls-10{fill:#9e3813;}.cls-11{fill:#c2abd3;}.cls-12{fill:#92278e;}.cls-13{fill:#bc8c6c;}.cls-14{fill:#cd5257;}.cls-15{fill:#d1d171;}.cls-16{fill:#d1b3a8;}.cls-17{fill:#c6b198;}.cls-18{fill:#42210b;}.cls-19{fill:#404e59;}.cls-20{fill:#958572;}.cls-21{fill:#2d201b;}.cls-22{fill:#594037;}.cls-23{fill:#631811;}.cls-24{fill:#534741;}.cls-25{filter:url(#AI_Shadow_1-2);}.cls-26{filter:url(#AI_Shadow_1-4);}.cls-27{filter:url(#AI_Shadow_1-3);}.cls-28{filter:url(#AI_Shadow_1);}.cls-29{fill:url(#linear-gradient-8);}.cls-30{fill:url(#linear-gradient-9);}.cls-31{fill:url(#linear-gradient-3);}.cls-32{fill:url(#linear-gradient-4);}.cls-33{fill:url(#linear-gradient-2);}.cls-34{fill:url(#linear-gradient-6);}.cls-35{fill:url(#linear-gradient-7);}.cls-36{fill:url(#linear-gradient-5);}.cls-37{opacity:.3;}.cls-38{opacity:.5;}.cls-39{opacity:.7;}</style><linearGradient id="linear-gradient" x1="962.18" y1="16.78" x2="956.79" y2="1067.95" gradientUnits="userSpaceOnUse"><stop offset="0" stop-color="#c5fff9"/><stop offset=".48" stop-color="#adbfef" stop-opacity=".5"/><stop offset=".69" stop-color="#c1e0e8"/></linearGradient><linearGradient id="linear-gradient-2" x1="169.1" y1="228.62" x2="280.06" y2="228.62" gradientTransform="translate(275.54 -121.28) rotate(29.36)" gradientUnits="userSpaceOnUse"><stop offset="0" stop-color="#fff2bf"/><stop offset="0" stop-color="#ffe2bf"/><stop offset=".46" stop-color="#fff3d4" stop-opacity=".8"/><stop offset=".9" stop-color="#ffefd4" stop-opacity=".5"/></linearGradient><linearGradient id="linear-gradient-3" x1="206.41" y1="135.42" x2="249.81" y2="135.42" gradientTransform="translate(543.38 -119.53) rotate(90)" gradientUnits="userSpaceOnUse"><stop offset="0" stop-color="#fff2bf"/><stop offset="0" stop-color="#fffcd4"/><stop offset=".46" stop-color="#fffce9" stop-opacity=".8"/><stop offset=".9" stop-color="#ffe6bf" stop-opacity=".5"/></linearGradient><linearGradient id="linear-gradient-4" x1="1702.92" y1="330.85" x2="1818.73" y2="330.85" gradientTransform="translate(-69.07 741.17) rotate(-25.65)" xlink:href="#linear-gradient-2"/><linearGradient id="linear-gradient-5" x1="1741.86" y1="233.57" x2="1787.15" y2="233.57" gradientTransform="translate(-141.86 -45.67)" xlink:href="#linear-gradient-3"/><linearGradient id="linear-gradient-6" x1="180.63" y1="730.18" x2="298.44" y2="730.18" gradientTransform="translate(-311.43 258.61) rotate(-25.65)" xlink:href="#linear-gradient-2"/><linearGradient id="linear-gradient-7" x1="220.24" y1="631.21" x2="266.32" y2="631.21" gradientTransform="translate(-62.16 91.1)" xlink:href="#linear-gradient-3"/><linearGradient id="linear-gradient-8" x1="1625.98" y1="864.53" x2="1738.41" y2="864.53" gradientTransform="translate(645.54 -723.78) rotate(29.36)" xlink:href="#linear-gradient-2"/><linearGradient id="linear-gradient-9" x1="1663.78" y1="770.1" x2="1707.75" y2="770.1" gradientTransform="translate(2507.36 -911.87) rotate(90)" xlink:href="#linear-gradient-3"/><filter id="AI_Shadow_1"><feGaussianBlur in="SourceAlpha" result="blur" stdDeviation="2"/><feOffset dx="4" dy="4" in="blur" result="offsetBlurredAlpha"/><feMerge><feMergeNode in="offsetBlurredAlpha"/><feMergeNode in="SourceGraphic"/></feMerge></filter><filter id="AI_Shadow_1-2"><feGaussianBlur in="SourceAlpha" result="blur" stdDeviation="2"/><feOffset dx="4" dy="4" in="blur" result="offsetBlurredAlpha"/><feMerge><feMergeNode in="offsetBlurredAlpha"/><feMergeNode in="SourceGraphic"/></feMerge></filter><filter id="AI_Shadow_1-3"><feGaussianBlur in="SourceAlpha" result="blur" stdDeviation="2"/><feOffset dx="4" dy="4" in="blur" result="offsetBlurredAlpha"/><feMerge><feMergeNode in="offsetBlurredAlpha"/><feMergeNode in="SourceGraphic"/></feMerge></filter><filter id="AI_Shadow_1-4"><feGaussianBlur in="SourceAlpha" result="blur" stdDeviation="2"/><feOffset dx="4" dy="4" in="blur" result="offsetBlurredAlpha"/><feMerge><feMergeNode in="offsetBlurredAlpha"/><feMergeNode in="SourceGraphic"/></feMerge></filter></defs><rect class="cls-2" x="-.5" y=".5" width="1920" height="1079"/><g><path class="cls-33" d="M391.2,102.16c-3.7,2.51-2.52,6.89-9.03,16.04-3.07,4.32-6.01,7.09-8.09,9.03-5.23,4.87-11.19,8.79-23.06,14.18-17.48,7.94-17.92,5.5-25.21,9.96-8.33,5.09-12.84,11.87-21.85,25.43-12.65,19.04-9.09,20.33-20.63,36.67-7.4,10.49-11.46,13.63-11.6,20.63-.18,9.15,6.5,16.22,11.89,21.78,6.74,6.94,12.48,9.97,32.59,19.84,30.98,15.21,34.59,16.48,39.9,14.9,10.24-3.05,16.53-13.69,21.06-21.35,4.59-7.76,3.27-9.16,9.31-21.92,4.71-9.94,6-10.12,13.54-24.07,8.43-15.59,12.63-23.5,12.03-29.44-1.09-10.79-9.1-12.1-9.45-23.42-.09-2.82,.22-6.4,6.88-20.27,10.92-22.76,15.59-24.8,14.47-31.09-2.26-12.75-24.64-22.39-32.73-16.9Z"/><path class="cls-10" d="M339.05,157.32s8.63,6.81,20.63,11.6c20.55,8.21,30.58-1.22,39.68,7.23,7.48,6.95,6.77,18.96,6.52,23.28-.62,10.58-5.2,14.62-13.82,29.94-16.34,29.02-14.61,40.58-28.22,47.49-6.99,3.55-14.12,3.89-17.26,3.87-7.83-.05-13.63-3-25.5-8.31-9.87-4.42-17.21-9.23-21.78-12.25-8.26-5.46-12.19-7.49-15.9-11.96-2.5-3-6.58-8.05-5.8-13.82,.58-4.29,3.59-7.12,4.51-8.02,16.3-16.02,35.83-77.2,50.71-74.06,1.65,.35,1.23,1.06,6.23,5.01Z"/><g class="cls-39"><ellipse class="cls-31" cx="407.96" cy="108.57" rx="3.94" ry="21.7" transform="translate(113.32 410.91) rotate(-60.64)"/><path d="M405.79,112.44c-7.77-4.37-18.76-11.91-17.16-14.75s13.74,2.64,21.52,7.01,18.76,11.91,17.16,14.75-13.74-2.64-21.52-7.01Zm3.87-6.88c-11.45-6.44-19.47-8.64-20.17-7.39s5.34,6.96,16.79,13.4c11.45,6.44,19.47,8.64,20.17,7.39s-5.34-6.96-16.79-13.4Z"/></g><path d="M296.92,266.45c-6.09-3.43-9.74-6.18-13.66-10.22-5.16-5.31-12.22-12.59-12.03-22.13,.11-5.45,2.51-8.62,6.87-14.37,1.41-1.86,3.01-3.98,4.82-6.54,5.78-8.18,7.77-12.63,9.89-17.33,2.17-4.84,4.42-9.84,10.73-19.33,9.04-13.61,13.58-20.43,22-25.58,3.52-2.15,5.48-2.72,8.44-3.59,3.24-.95,7.69-2.24,16.82-6.39,11.09-5.04,17.31-8.86,22.93-14.09,1.96-1.83,4.92-4.58,8.03-8.95,3.29-4.63,4.61-8.06,5.57-10.57,.95-2.48,1.64-4.28,3.58-5.59h0c3.65-2.48,10.31-2.16,17.37,.82,6.59,2.79,14.77,8.75,16.13,16.41,.68,3.84-.71,6.2-4.07,11.9-2.48,4.21-5.88,9.97-10.44,19.48-6.46,13.48-6.92,17.17-6.83,20.04,.18,5.73,2.33,8.78,4.62,12,2.11,2.99,4.3,6.07,4.84,11.39,.63,6.21-3.89,14.56-12.09,29.72-3.47,6.42-5.64,9.96-7.39,12.81-2.09,3.42-3.61,5.89-6.14,11.23-2.9,6.12-4.1,9.64-5.07,12.46-1.04,3.03-1.86,5.43-4.26,9.49-4.61,7.79-10.92,18.46-21.34,21.57-5.55,1.66-9.31,.26-40.25-14.93-8.51-4.18-14.48-7.14-19.07-9.72Zm114.56-161.2c-1.21-.68-2.42-1.27-3.57-1.76-6.66-2.81-13.1-3.17-16.43-.91-1.68,1.14-2.29,2.73-3.21,5.13-.98,2.56-2.33,6.06-5.69,10.79-3.16,4.45-6.17,7.25-8.16,9.1-5.71,5.32-12,9.19-23.2,14.27-9.2,4.18-13.68,5.49-16.96,6.44-2.88,.84-4.79,1.4-8.2,3.48-8.24,5.03-12.73,11.8-21.69,25.27-6.27,9.43-8.5,14.4-10.66,19.2-2.13,4.75-4.15,9.23-9.98,17.49-1.82,2.58-3.43,4.7-4.84,6.56-4.23,5.59-6.57,8.66-6.67,13.79-.18,9.13,6.72,16.23,11.75,21.42,6.76,6.97,12.75,10.07,32.45,19.74,30.32,14.88,34.38,16.41,39.54,14.87,10.05-3,16.25-13.47,20.77-21.12,2.36-3.98,3.12-6.22,4.18-9.32,.97-2.85,2.19-6.39,5.11-12.57,2.56-5.4,4.08-7.88,6.19-11.33,1.74-2.84,3.9-6.37,7.36-12.76,8.11-14.99,12.57-23.24,11.98-29.15-.51-5.06-2.53-7.9-4.66-10.92-2.27-3.2-4.61-6.51-4.8-12.54-.09-3,.37-6.82,6.93-20.5,4.58-9.55,8.13-15.57,10.48-19.56,3.32-5.64,4.57-7.75,3.95-11.23-1.06-5.94-6.53-10.85-11.97-13.91Z"/><g><path class="cls-5" d="M317.85,157.46c6.09-1.81,11.33,12.12,25.76,23.53,10.87,8.6,22.24,12.04,32.02,15,20.39,6.17,30.47,3.44,32.91,9.47,1.73,4.28-2.39,8.02-12.39,24.71-11.62,19.39-9.57,20.19-13.54,24.07-21.8,21.32-80.11-6.61-93.98-24.3-1.73-2.21-5.55-7.09-5.44-13.52,.07-4.34,1.89-6.55,7.23-15.54,6.25-10.51,4.55-8.83,11.6-20.63,2.6-4.34,.06,.06,10.82-16.55,3.28-5.07,3.77-5.86,5.01-6.23Z"/><path d="M309.91,247.02c-9.57-5.38-17.47-11.42-21.67-16.78-1.7-2.16-5.66-7.23-5.55-13.83,.07-3.78,1.41-6.01,5.01-11.97,.68-1.12,1.44-2.38,2.29-3.81,2.99-5.03,4.13-7.21,5.34-9.52,1.28-2.44,2.59-4.96,6.27-11.11,1.16-1.93,1.31-2.16,2.04-3.23,.9-1.32,2.78-4.07,8.78-13.33l.27-.42c3.15-4.86,3.63-5.61,5.02-6.02h0c3.66-1.09,6.77,2.7,11.48,8.42,3.69,4.49,8.28,10.09,14.73,15.19,10.79,8.53,21.98,11.92,31.85,14.91,8.68,2.63,15.58,3.65,20.62,4.4,6.92,1.03,11.1,1.64,12.61,5.36,1.34,3.32-.5,6.21-5.44,13.94-1.87,2.93-4.2,6.57-6.99,11.21-6.1,10.18-8.44,15.25-9.84,18.28-1.26,2.74-1.84,3.99-3.78,5.89-6.02,5.88-15.05,8.47-26.83,7.7-14.8-.98-32.28-7.43-46.21-15.26Zm8.08-89.09h0c-1,.3-1.42,.91-4.47,5.61l-.27,.42c-6.01,9.27-7.89,12.03-8.8,13.35-.74,1.08-.87,1.27-2.01,3.18-3.66,6.13-4.97,8.63-6.24,11.06-1.16,2.22-2.36,4.51-5.36,9.57-.85,1.43-1.61,2.69-2.29,3.82-3.6,5.96-4.81,7.96-4.87,11.48-.11,6.26,3.57,10.95,5.34,13.2,10.2,13.01,42.44,30.04,67.17,31.67,11.5,.76,20.27-1.74,26.08-7.42,1.81-1.77,2.33-2.89,3.57-5.59,1.4-3.05,3.75-8.15,9.89-18.37,2.79-4.66,5.13-8.31,7-11.24,4.74-7.41,6.51-10.18,5.36-13.04-1.29-3.19-5.04-3.75-11.83-4.76-5.07-.75-12.02-1.78-20.76-4.43-9.96-3.01-21.24-6.42-32.18-15.08-6.53-5.16-11.16-10.8-14.88-15.33-4.45-5.42-7.39-9.01-10.43-8.11Z"/></g><g><path d="M317.85,205.18l-5.21,9.25c-.73,1.29-1.23,2.27-1.5,2.95-.28,.68-.44,1.32-.49,1.95-.07,1.05,.23,1.92,.89,2.6l-.39,.7-7.2-4.05,.39-.7c.97,.19,1.91-.1,2.83-.87,.69-.56,1.64-1.91,2.85-4.06l9.56-17c.77-1.37,1.29-2.38,1.56-3.04,.27-.66,.43-1.26,.47-1.81,.09-1-.17-1.85-.76-2.56l.39-.7c.1,.08,.19,.14,.27,.18l.93,.67c.38,.27,.83,.55,1.35,.85,.84,.47,1.63,.83,2.39,1.08l1.74,.62c.55,.19,1.07,.42,1.55,.69,.89,.5,1.59,1.13,2.09,1.88,.5,.76,.8,1.61,.9,2.55,.1,.95,0,1.99-.28,3.12s-.78,2.31-1.46,3.52c-1.14,2.03-2.38,3.41-3.71,4.15-1.33,.74-2.74,.82-4.22,.25,.47,1.14,.68,2.44,.62,3.92-.06,1.48-.42,3.74-1.07,6.79-.72,3.43-1.14,5.86-1.26,7.3s.01,2.58,.39,3.42l-.35,.63c-.81-.49-1.42-1.04-1.85-1.63-.43-.6-.73-1.4-.91-2.41-.22-1.29-.22-2.86-.01-4.72,.21-1.86,.62-3.89,1.24-6.09l.81-2.84c.37-1.33,.6-2.33,.68-2.98,.08-.66,.02-1.17-.17-1.53-.19-.37-.55-.69-1.07-.99l-1.97-1.11Zm-11.67,13.15l3.31,1.86-.08-.9c-.05-.52-.04-.91,.01-1.18s.21-.62,.46-1.07c.14-.24,.22-.4,.27-.49,.04-.08,.09-.17,.14-.26l.22-.38,11.84-21.05,.22-.38c.05-.09,.1-.18,.16-.27,.06-.09,.14-.24,.27-.47,.24-.42,.45-.72,.64-.91s.49-.39,.89-.59l.14-.07,1.18-.61-.43-.18c-.74-.3-1.38-.6-1.93-.91-.34-.19-.79-.47-1.35-.85l.12,1.19c.06,.47,.06,.85,0,1.14-.06,.29-.22,.66-.48,1.11-.14,.26-.27,.51-.41,.75l-.22,.38-11.84,21.05-.22,.38c-.13,.24-.28,.49-.43,.74-.26,.47-.49,.79-.68,.97-.19,.18-.52,.38-1,.61l-.81,.4Zm12.18-14.05l2.03,1.14c1.17,.66,2.16,.87,2.97,.63,.72-.21,1.49-.73,2.3-1.56,.81-.84,1.58-1.89,2.3-3.17s1.26-2.59,1.54-3.81,.32-2.28,.1-3.16c-.22-.89-.68-1.53-1.39-1.92-1.04-.59-2.11-.34-3.2,.75-.62,.62-1.37,1.72-2.26,3.3l-4.39,7.81Zm1.97,23.55c-.15-.66-.26-1.24-.3-1.74-.05-.5-.06-1.17-.02-2,.08-1.06,.18-1.96,.3-2.7s.4-2.1,.83-4.07c.42-1.88,.71-3.42,.88-4.63,.17-1.21,.23-2.22,.17-3.05-.06-.82-.21-1.56-.47-2.22-.05,.78-.14,1.53-.28,2.24-.08,.39-.28,1.19-.61,2.41-.09,.36-.19,.71-.28,1.06-.09,.34-.19,.7-.3,1.07-.96,3.59-1.43,6.46-1.42,8.61,.01,2.15,.51,3.82,1.48,5Zm2.39-20.97c.63,.06,1.28,0,1.93-.19s1.27-.47,1.85-.86c.57-.39,1.13-.88,1.67-1.49,.54-.61,1.01-1.29,1.44-2.04,.92-1.64,1.43-3.23,1.52-4.77,.09-1.55-.24-2.76-1.01-3.65,.17,.71,.22,1.47,.15,2.28-.07,.81-.26,1.67-.57,2.57s-.73,1.83-1.26,2.77c-.92,1.64-1.84,2.88-2.75,3.75s-1.9,1.41-2.96,1.64Z"/><path d="M346.52,202.07l-.39,.7c-1.03-.22-2.01,.04-2.94,.78-.44,.36-.87,.84-1.29,1.44s-.95,1.47-1.6,2.63l-6.99,12.43-.44,.79c-1.66,2.98-2.59,5.49-2.77,7.54-.1,1.11,.02,2.09,.36,2.94,.34,.85,.84,1.47,1.51,1.84,.98,.55,2.1,.54,3.36-.03s2.57-1.65,3.93-3.21c1.08-1.25,2.32-3.12,3.72-5.61l5.89-10.47c1.44-2.55,2.17-4.55,2.21-5.99,.03-1.21-.26-2.13-.87-2.77l.39-.7,5.26,2.96-.39,.7c-.66-.01-1.29,.16-1.9,.53s-1.23,.96-1.87,1.77c-.63,.81-1.33,1.88-2.08,3.22l-6.18,10.99c-1.03,1.83-1.91,3.27-2.65,4.32-.74,1.05-1.49,1.96-2.26,2.73-1.02,1.01-2.03,1.79-3.03,2.33-1.01,.54-1.98,.83-2.92,.88-.94,.05-1.81-.16-2.61-.61-.85-.48-1.5-1.16-1.94-2.05-.44-.89-.67-1.95-.68-3.17-.02-1.22,.18-2.58,.6-4.06,.57-2,1.77-4.64,3.62-7.92l6.09-10.83c.73-1.29,1.23-2.28,1.52-2.95s.46-1.31,.51-1.89c.1-1.05-.16-1.91-.76-2.56l.39-.7,7.2,4.05Zm-6.35-2.44l.16,1.33c.06,.43,.07,.8,0,1.11s-.22,.69-.48,1.14c-.24,.42-.37,.67-.41,.75l-.22,.38-7.08,12.59c-.6,1.07-1.28,2.39-2.06,3.97-1.46,3.01-2.18,5.63-2.15,7.86,.03,2.23,.8,3.78,2.31,4.65-1.17-1.51-1.56-3.5-1.17-5.99,.17-1.13,.52-2.34,1.06-3.63,.54-1.29,1.36-2.91,2.46-4.86l7.83-13.92,.22-.38,.42-.74c.26-.45,.5-.77,.72-.98s.54-.41,.96-.59l1.22-.56-3.8-2.14Zm13.45,7.57l-1.99-1.12c.11,.5,.15,.97,.12,1.43-.03,.46-.13,1.03-.32,1.72,.75-.86,1.48-1.54,2.19-2.03Z"/><path d="M350.79,243.12l-.27-.15,7.59-27.95-9.24,14.87c-.51,.82-.98,1.6-1.4,2.35-1.23,2.19-1.96,4.01-2.18,5.44-.22,1.44,.05,2.67,.8,3.68l-.39,.7-6.18-3.48,.39-.7c.77-.08,1.59-.4,2.45-.95,.87-.55,1.71-1.29,2.52-2.21,.89-1.02,2.1-2.76,3.63-5.22l9.84-15.83c.31-1.23,.42-2.18,.31-2.85-.11-.67-.43-1.19-.97-1.55l.39-.7,5.48,3.08c-.12,.13-.19,.22-.22,.26-.53,.61-.91,1.11-1.13,1.5-.41,.72-.85,1.95-1.32,3.7l-5.35,19.76,13.08-14.78c1.05-1.19,1.77-2.14,2.16-2.84s.76-1.7,1.05-2.93l5.45,3.06-.39,.7c-.87-.21-1.67-.08-2.38,.39-.71,.48-1.44,1.36-2.16,2.65-.23,.41-.43,.79-.61,1.17l-.28,.58-8.45,17.24c-.11,.23-.21,.44-.29,.61-.08,.17-.31,.66-.69,1.48-.71,1.52-1.09,2.73-1.15,3.62-.06,.89,.19,1.66,.76,2.29l-.39,.7-7.2-4.05,.39-.7c1.01,.06,1.88-.13,2.62-.56,.73-.43,1.37-1.13,1.92-2.1,.21-.37,.53-1.01,.96-1.89l9.71-19.85-18.87,21.46Zm-6.76-3.51c.08-.98,.19-1.76,.34-2.34s.41-1.28,.78-2.09c-.69,.8-1.29,1.41-1.82,1.82-.52,.42-1.15,.8-1.89,1.16l2.58,1.45Zm7.33,2.11l2.27-2.58,6.39-23.55c.34-1.21,.65-2.05,.92-2.54s.57-.87,.93-1.23l-2.6-1.46c.08,.84,.04,1.66-.13,2.45-.19,1.02-.43,2-.7,2.96l-7.09,25.95Zm4.95,4.8l3.48,1.96-.06-1.28c-.03-.55,.3-1.52,.97-2.92l10.85-22.2c.2-.4,.35-.67,.43-.82,.19-.34,.4-.62,.61-.83,.21-.21,.55-.43,.99-.67l1.22-.65-2.63-1.48-12.54,25.64-.23,.52c-.19,.37-.33,.64-.43,.82-.21,.37-.41,.65-.6,.82-.19,.17-.51,.36-.96,.59l-1.09,.51Z"/></g></g><g><path class="cls-32" d="M1607.14,198.39c-.07,4.67,4.39,6.28,8.32,17.32,1.85,5.21,2.46,9.38,2.87,12.32,1.03,7.38,.82,14.83-1.68,28.21-3.68,19.7-6.02,18.61-6.58,27.52-.64,10.17,2.47,18.08,8.67,33.9,8.71,22.21,11.94,19.94,19.01,39.59,4.53,12.61,4.79,17.96,10.69,22.27,7.71,5.63,17.76,4.15,25.74,2.87,9.97-1.61,16-4.71,36.47-15.99,31.55-17.39,34.8-19.71,36.62-25.2,3.51-10.58-1.81-22.32-5.65-30.78-3.89-8.57-5.87-8.28-13.17-21.08-5.68-9.97-5.07-11.19-12.48-25.98-8.28-16.54-12.53-24.87-17.97-27.91-9.88-5.53-15.8,.54-25.69-5.93-2.47-1.62-5.34-4.02-13.22-18.01-12.93-22.96-11.87-28.17-17.92-30.98-12.26-5.7-33.9,7.67-34.05,17.87Z"/><path class="cls-10" d="M1623.08,275.99s10.99-3.3,22.27-10.69c19.32-12.66,17.26-26.88,29.94-29.6,10.42-2.23,20.26,5.56,23.81,8.36,8.68,6.87,9.39,13.2,17.33,29.74,15.03,31.34,25.96,36.78,23.72,52.56-1.15,8.09-5.13,14.4-7.03,17.08-4.73,6.66-10.72,9.86-22.37,16.83-9.69,5.8-18.19,9.19-23.51,11.29-9.61,3.79-13.7,5.94-19.75,6.44-4.06,.34-10.83,.81-15.29-3.31-3.32-3.06-3.94-7.34-4.16-8.66-3.94-23.52-44.56-76.85-32.98-87.69,1.29-1.21,1.64-.41,8.02-2.33Z"/><g class="cls-39"><ellipse class="cls-36" cx="1622.65" cy="187.9" rx="22.65" ry="4.12" transform="translate(78.57 720.93) rotate(-25.65)"/><path d="M1624.65,192.07c-8.39,4.03-21.41,8.91-22.88,5.85s10.48-10.17,18.87-14.2,21.41-8.91,22.88-5.85c1.47,3.06-10.48,10.17-18.87,14.2Zm-3.56-7.42c-12.36,5.94-19.04,11.47-18.39,12.83s9.15-.4,21.51-6.33c12.36-5.94,19.04-11.47,18.39-12.83-.65-1.36-9.15,.4-21.51,6.33Z"/></g><path d="M1691.18,377.34c-6.58,3.16-11.11,4.63-16.92,5.56-7.63,1.23-18.08,2.91-26.12-2.96-4.59-3.35-5.86-7.3-8.17-14.47-.75-2.32-1.6-4.96-2.7-8.04-3.54-9.84-6.14-14.2-8.9-18.83-2.83-4.75-5.76-9.67-10.11-20.75-6.22-15.87-9.34-23.84-8.7-34.12,.27-4.3,.95-6.32,1.98-9.37,1.13-3.34,2.68-7.92,4.6-18.21,2.33-12.5,2.79-20.1,1.67-28.05-.39-2.77-.97-6.95-2.85-12.22-1.99-5.58-4.14-8.77-5.71-11.09-1.55-2.3-2.68-3.97-2.64-6.41h0c.07-4.6,4.32-10.11,11.1-14.36,6.33-3.97,16.32-7.39,23.68-3.97,3.69,1.71,4.87,4.32,7.74,10.61,2.12,4.64,5.01,11,10.41,20.59,7.65,13.59,10.54,16.19,13.05,17.83,5.01,3.28,8.9,3.26,13.02,3.24,3.82-.02,7.77-.04,12.63,2.68,5.69,3.18,10.12,12.04,18.18,28.13,3.41,6.81,5.14,10.79,6.53,13.98,1.67,3.83,2.87,6.61,5.93,11.97,3.5,6.14,5.79,9.28,7.62,11.79,1.97,2.7,3.53,4.84,5.57,9.33,3.9,8.61,9.25,20.39,5.67,31.16-1.9,5.73-5.35,8.12-36.86,25.48-8.67,4.78-14.77,8.11-19.72,10.49Zm-69.27-194.44c-1.31,.63-2.53,1.31-3.64,2-6.39,4.01-10.55,9.31-10.61,13.5-.03,2.12,.96,3.59,2.46,5.82,1.6,2.37,3.79,5.62,5.82,11.32,1.91,5.37,2.5,9.61,2.9,12.43,1.13,8.07,.67,15.76-1.68,28.38-1.94,10.37-3.5,14.99-4.64,18.36-1.01,2.97-1.67,4.94-1.93,9.1-.63,10.05,2.47,17.95,8.63,33.67,4.31,11.01,7.22,15.89,10.04,20.6,2.78,4.67,5.41,9.08,8.98,19.01,1.11,3.1,1.97,5.74,2.71,8.07,2.24,6.97,3.48,10.8,7.8,13.96,7.7,5.62,17.9,3.97,25.35,2.77,10.01-1.61,16.24-4.87,36.31-15.93,30.87-17.02,34.61-19.58,36.38-24.91,3.45-10.39-1.8-21.96-5.63-30.4-1.99-4.4-3.45-6.39-5.46-9.15-1.85-2.54-4.16-5.7-7.69-11.89-3.09-5.42-4.3-8.21-5.98-12.07-1.39-3.18-3.11-7.15-6.51-13.93-7.96-15.9-12.35-24.66-17.76-27.69-4.63-2.59-8.27-2.57-12.12-2.55-4.09,.02-8.33,.05-13.59-3.4-2.62-1.72-5.62-4.4-13.38-18.19-5.42-9.63-8.45-16.27-10.45-20.67-2.83-6.22-3.89-8.55-7.24-10.1-5.71-2.66-13.19-.91-19.06,1.91Z"/><g><path class="cls-5" d="M1610.52,294.21c2.1-6.29,17.14-2.44,35.53-7.94,13.86-4.15,23.61-11.81,31.99-18.4,17.48-13.74,21.17-23.99,27.79-22.47,4.7,1.08,5.43,6.84,13.71,25.39,9.62,21.54,11.53,20.27,12.48,25.98,5.18,31.41-53.61,64.54-77.03,65.81-2.92,.16-9.39,.51-14.82-3.44-3.67-2.66-4.47-5.54-8.96-15.49-5.25-11.63-4.82-9.18-10.69-22.27-2.16-4.82,.09-.01-7.67-19.15-2.37-5.84-2.76-6.73-2.33-8.02Z"/><path d="M1682.34,354.6c-10.33,4.96-20.22,8.1-27.32,8.48-2.86,.16-9.57,.52-15.15-3.54-3.19-2.32-4.29-4.81-7.24-11.45-.55-1.25-1.18-2.66-1.89-4.24-2.51-5.57-3.7-7.85-4.95-10.26-1.32-2.55-2.69-5.18-5.75-12.01-.96-2.14-1.06-2.41-1.54-3.68-.59-1.56-1.82-4.82-6.14-15.49l-.2-.48c-2.27-5.6-2.62-6.46-2.14-7.89h0c1.26-3.79,6.36-4.18,14.07-4.77,6.05-.46,13.58-1.04,21.8-3.5,13.76-4.12,23.35-11.66,31.81-18.31,7.44-5.85,12.45-11.14,16.1-15,5.02-5.3,8.05-8.51,12.13-7.57,3.65,.84,5.01,4.15,8.66,12.99,1.38,3.35,3.1,7.53,5.41,12.69,5.05,11.31,7.99,16.34,9.74,19.35,1.59,2.72,2.31,3.96,2.77,6.76,1.43,8.67-1.76,17.94-9.48,27.55-9.69,12.07-25.67,23.16-40.71,30.38Zm-71.34-60.23h0c-.34,1.03-.08,1.76,2.12,7.18l.19,.48c4.33,10.69,5.56,13.95,6.15,15.52,.48,1.27,.57,1.5,1.51,3.62,3.05,6.8,4.41,9.42,5.72,11.96,1.2,2.32,2.45,4.72,4.97,10.31,.72,1.59,1.34,2.99,1.89,4.25,2.94,6.64,3.93,8.88,6.9,11.04,5.28,3.84,11.5,3.5,14.49,3.34,17.23-.94,51.09-18.31,67.28-38.48,7.53-9.38,10.65-18.37,9.27-26.74-.43-2.61-1.08-3.72-2.64-6.4-1.76-3.02-4.72-8.09-9.79-19.45-2.31-5.17-4.03-9.35-5.42-12.71-3.5-8.49-4.81-11.66-7.94-12.38-3.5-.81-6.22,2.06-11.15,7.27-3.68,3.89-8.71,9.21-16.21,15.1-8.54,6.71-18.21,14.32-32.16,18.49-8.32,2.49-15.92,3.08-22.02,3.55-7.3,.56-12.13,.93-13.17,4.07Z"/></g><g><path d="M1651.32,322.77l4.8,9.99c.67,1.39,1.21,2.41,1.62,3.05,.41,.64,.87,1.17,1.37,1.59,.86,.68,1.78,.95,2.76,.8l.36,.75-7.77,3.73-.36-.75c.74-.71,1.06-1.69,.95-2.94-.06-.93-.65-2.55-1.76-4.87l-8.81-18.35c-.71-1.47-1.26-2.52-1.66-3.15-.4-.62-.82-1.12-1.27-1.48-.8-.67-1.69-.96-2.65-.88l-.36-.75c.12-.04,.23-.08,.32-.12l1.13-.39c.46-.16,.97-.38,1.54-.65,.9-.43,1.69-.9,2.35-1.4l1.57-1.11c.49-.36,1-.66,1.52-.91,.96-.46,1.91-.68,2.86-.66,.94,.03,1.85,.28,2.72,.76,.87,.48,1.7,1.18,2.5,2.11s1.51,2.04,2.14,3.36c1.05,2.19,1.49,4.07,1.33,5.66-.17,1.58-.94,2.84-2.31,3.76,1.25,.27,2.5,.88,3.72,1.82,1.23,.94,2.95,2.6,5.17,4.98,2.5,2.67,4.32,4.48,5.49,5.44s2.21,1.53,3.16,1.72l.33,.68c-.9,.39-1.74,.6-2.5,.6-.76,0-1.63-.21-2.61-.66-1.23-.58-2.58-1.52-4.04-2.81-1.46-1.29-2.95-2.86-4.47-4.7l-1.94-2.39c-.92-1.12-1.63-1.9-2.14-2.37-.51-.46-.98-.72-1.41-.77-.43-.05-.92,.05-1.48,.32l-2.13,1.02Zm4.25,17.85l3.57-1.71-.82-.48c-.47-.27-.8-.51-1-.72s-.41-.55-.64-1.04c-.12-.26-.21-.43-.26-.52-.05-.09-.09-.18-.14-.28l-.2-.41-10.91-22.73-.2-.41c-.05-.1-.09-.2-.13-.29-.04-.1-.12-.27-.24-.51-.22-.45-.35-.82-.4-1.09s-.04-.65,.03-1.12l.03-.16,.18-1.37-.42,.26c-.7,.45-1.34,.82-1.93,1.11-.37,.18-.88,.39-1.54,.65l1.09,.61c.44,.23,.76,.46,.98,.68,.21,.23,.43,.59,.66,1.07,.14,.27,.27,.54,.4,.8l.2,.41,10.91,22.73,.2,.41c.12,.26,.25,.53,.37,.81,.24,.5,.38,.89,.42,1.16,.04,.27,.01,.68-.08,1.22l-.14,.93Zm-4.72-18.82l2.19-1.05c1.26-.61,2.04-1.33,2.32-2.16,.26-.74,.27-1.71,.04-2.91-.23-1.2-.67-2.48-1.34-3.86s-1.46-2.63-2.34-3.6-1.76-1.63-2.65-1.97c-.89-.34-1.71-.33-2.47,.04-1.12,.54-1.55,1.6-1.27,3.18,.16,.9,.65,2.2,1.47,3.9l4.05,8.43Zm21.31,12.41c-.66-.26-1.21-.52-1.67-.78-.46-.26-1.03-.65-1.72-1.18-.86-.7-1.57-1.33-2.13-1.88s-1.55-1.6-2.98-3.15c-1.35-1.48-2.5-2.66-3.43-3.53-.93-.87-1.77-1.52-2.5-1.97-.74-.44-1.46-.75-2.18-.93,.64,.51,1.23,1.04,1.75,1.58,.29,.3,.85,.96,1.7,1.97,.25,.3,.5,.59,.74,.87,.24,.28,.49,.58,.74,.9,2.5,2.97,4.67,5.09,6.52,6.37,1.85,1.28,3.57,1.85,5.16,1.72Zm-16.5-14.6c.43-.51,.76-1.09,1-1.76s.36-1.37,.37-2.09c.01-.72-.08-1.5-.28-2.32-.2-.82-.49-1.64-.88-2.45-.85-1.77-1.9-3.15-3.17-4.16-1.27-1.01-2.51-1.45-3.73-1.32,.71,.28,1.38,.69,2.04,1.24,.65,.54,1.27,1.22,1.86,2.02s1.13,1.72,1.62,2.74c.85,1.77,1.37,3.3,1.56,4.59s.07,2.47-.37,3.51Z"/><path d="M1665.81,296.39l.36,.75c-.8,.74-1.17,1.74-1.1,2.98,.05,.6,.2,1.25,.45,1.97s.69,1.69,1.29,2.94l6.44,13.42,.41,.85c1.55,3.2,3.15,5.5,4.79,6.88,.89,.75,1.8,1.23,2.73,1.45,.93,.22,1.76,.16,2.48-.19,1.06-.51,1.72-1.47,1.99-2.9s.13-3.18-.4-5.28c-.42-1.67-1.28-3.85-2.57-6.54l-5.43-11.3c-1.32-2.75-2.59-4.58-3.8-5.47-1.01-.75-1.98-1.06-2.89-.91l-.36-.75,5.68-2.73,.36,.75c-.41,.55-.63,1.2-.68,1.94s.08,1.63,.39,2.65c.31,1.03,.82,2.26,1.51,3.7l5.7,11.86c.95,1.98,1.65,3.59,2.11,4.85,.45,1.26,.78,2.45,.98,3.57,.26,1.47,.31,2.8,.18,3.98-.14,1.18-.47,2.19-.99,3.02-.52,.83-1.22,1.45-2.08,1.87-.92,.44-1.89,.58-2.91,.43-1.02-.16-2.06-.59-3.12-1.31-1.06-.72-2.1-1.7-3.11-2.95-1.37-1.68-2.9-4.29-4.61-7.84l-5.61-11.69c-.67-1.39-1.21-2.42-1.62-3.07s-.85-1.17-1.32-1.57c-.84-.71-1.73-1.01-2.65-.88l-.36-.75,7.77-3.73Zm-5.89,3.96l1.24,.66c.41,.2,.73,.42,.95,.67s.46,.6,.69,1.09c.22,.45,.35,.72,.4,.8l.2,.41,6.52,13.59c.55,1.15,1.27,2.53,2.17,4.13,1.7,3.05,3.51,5.23,5.44,6.54,1.93,1.31,3.71,1.58,5.36,.81-1.99,.1-3.93-.76-5.83-2.59-.87-.82-1.69-1.85-2.46-3.08-.78-1.23-1.67-2.9-2.68-5.01l-7.21-15.02-.2-.41-.39-.8c-.23-.49-.36-.89-.41-1.21s-.02-.71,.08-1.17l.26-1.38-4.11,1.97Zm14.52-6.97l-2.15,1.03c.49,.21,.92,.46,1.3,.75,.38,.3,.8,.73,1.28,1.3-.29-1.16-.43-2.19-.43-3.08Z"/><path d="M1703.47,317.31l-.29,.14-19.36-23.22,7.18,16.8c.39,.93,.79,1.8,1.18,2.6,1.14,2.37,2.25,4.07,3.35,5.12,1.1,1.05,2.31,1.55,3.63,1.52l.36,.75-6.67,3.2-.36-.75c.39-.71,.61-1.6,.66-2.66,.05-1.07-.08-2.23-.38-3.48-.34-1.37-1.1-3.45-2.29-6.23l-7.65-17.89c-.86-1-1.61-1.66-2.25-1.97-.64-.31-1.28-.34-1.91-.1l-.36-.75,5.92-2.84c.04,.18,.08,.29,.09,.35,.2,.82,.41,1.44,.61,1.86,.37,.78,1.17,1.89,2.37,3.35l13.69,16.4-4.81-20.03c-.39-1.61-.77-2.79-1.14-3.55s-1-1.66-1.88-2.66l5.88-2.82,.36,.75c-.71,.62-1.07,1.38-1.09,2.27-.02,.9,.3,2.04,.97,3.44,.21,.44,.42,.84,.63,1.22l.33,.59,9.69,17.54c.13,.23,.25,.44,.35,.61,.1,.17,.38,.66,.85,1.48,.88,1.51,1.68,2.56,2.41,3.15,.73,.59,1.53,.83,2.41,.72l.36,.75-7.77,3.73-.36-.75c.65-.83,1.02-1.69,1.09-2.57,.07-.88-.14-1.85-.65-2.9-.19-.4-.54-1.06-1.04-1.95l-11.16-20.18,7.06,28.98Zm-7.04,3.68c-.8-.65-1.39-1.22-1.8-1.69s-.84-1.12-1.32-1.92c.27,1.07,.43,1.95,.47,2.64,.04,.7,0,1.47-.14,2.31l2.79-1.34Zm6.18-5l-.85-3.48-16.31-19.57c-.83-1.02-1.37-1.78-1.62-2.3s-.41-1.01-.49-1.53l-2.81,1.35c.77,.43,1.44,.95,2.02,1.57,.75,.78,1.46,1.56,2.11,2.37l17.95,21.59Zm7.06-1.36l3.75-1.8-1.13-.72c-.49-.3-1.13-1.16-1.92-2.58l-12.49-22.57c-.22-.41-.37-.7-.44-.86-.18-.37-.29-.71-.34-1.02-.05-.31-.04-.72,.02-1.25l.17-1.43-2.83,1.36,14.41,26.07,.3,.51c.2,.38,.35,.67,.45,.86,.19,.4,.31,.74,.34,1,.03,.26,0,.66-.08,1.17l-.22,1.24Z"/></g></g><g><path class="cls-34" d="M165.34,732.99c-.07,4.75,4.46,6.39,8.46,17.62,1.89,5.3,2.5,9.55,2.92,12.54,1.05,7.51,.83,15.09-1.71,28.7-3.74,20.04-6.13,18.93-6.69,27.99-.65,10.35,2.51,18.39,8.82,34.49,8.86,22.6,12.15,20.29,19.34,40.27,4.61,12.82,4.87,18.27,10.88,22.65,7.84,5.73,18.06,4.22,26.18,2.92,10.14-1.63,16.27-4.79,37.1-16.27,32.09-17.69,35.4-20.05,37.25-25.63,3.58-10.76-1.84-22.71-5.74-31.32-3.95-8.72-5.97-8.42-13.4-21.45-5.78-10.15-5.16-11.38-12.69-26.43-8.42-16.82-12.75-25.3-18.28-28.39-10.05-5.63-16.07,.55-26.13-6.04-2.51-1.64-5.43-4.09-13.45-18.32-13.15-23.36-12.08-28.66-18.23-31.51-12.47-5.79-34.48,7.8-34.64,18.18Z"/><path class="cls-10" d="M181.56,811.93s11.18-3.36,22.65-10.88c19.66-12.88,17.56-27.35,30.46-30.11,10.6-2.27,20.61,5.65,24.22,8.5,8.83,6.98,9.56,13.42,17.63,30.26,15.29,31.89,26.4,37.42,24.13,53.46-1.17,8.23-5.21,14.65-7.15,17.37-4.82,6.78-10.91,10.03-22.75,17.12-9.85,5.9-18.51,9.35-23.91,11.48-9.78,3.86-13.94,6.04-20.09,6.55-4.13,.34-11.01,.82-15.56-3.37-3.38-3.12-4-7.46-4.23-8.81-4.01-23.93-45.33-78.17-33.55-89.21,1.31-1.23,1.67-.42,8.16-2.37Z"/><g class="cls-39"><ellipse class="cls-35" cx="181.12" cy="722.31" rx="23.04" ry="4.19" transform="translate(-294.82 149.58) rotate(-25.65)"/><path d="M183.16,726.56c-8.54,4.1-21.78,9.07-23.28,5.95-1.5-3.12,10.66-10.35,19.2-14.45s21.78-9.07,23.28-5.95c1.5,3.12-10.66,10.35-19.2,14.45Zm-3.63-7.55c-12.57,6.04-19.37,11.67-18.71,13.05s9.31-.4,21.88-6.44c12.57-6.04,19.37-11.67,18.71-13.05s-9.31,.4-21.88,6.44Z"/></g><path d="M250.83,915.02c-6.69,3.21-11.3,4.71-17.21,5.66-7.76,1.25-18.39,2.96-26.57-3.01-4.67-3.41-5.97-7.43-8.31-14.72-.76-2.36-1.62-5.04-2.75-8.18-3.6-10.01-6.25-14.45-9.05-19.15-2.88-4.84-5.86-9.84-10.28-21.11-6.33-16.15-9.51-24.25-8.85-34.71,.27-4.38,.97-6.43,2.02-9.53,1.15-3.4,2.73-8.05,4.68-18.53,2.37-12.71,2.83-20.45,1.7-28.53-.39-2.82-.99-7.08-2.9-12.43-2.02-5.68-4.21-8.92-5.81-11.28-1.58-2.34-2.72-4.03-2.69-6.52h0c.07-4.68,4.4-10.28,11.29-14.61,6.44-4.04,16.6-7.52,24.09-4.04,3.75,1.74,4.96,4.39,7.87,10.79,2.15,4.72,5.1,11.19,10.59,20.94,7.79,13.83,10.72,16.47,13.28,18.14,5.09,3.34,9.06,3.32,13.25,3.29,3.88-.02,7.9-.04,12.85,2.73,5.78,3.24,10.3,12.25,18.49,28.62,3.47,6.93,5.23,10.97,6.64,14.22,1.7,3.9,2.92,6.72,6.03,12.18,3.56,6.25,5.89,9.44,7.76,12,2.01,2.75,3.59,4.92,5.66,9.49,3.97,8.76,9.41,20.74,5.76,31.7-1.94,5.83-5.44,8.26-37.5,25.93-8.82,4.86-15.03,8.25-20.06,10.67Zm-70.47-197.8c-1.33,.64-2.58,1.33-3.71,2.04-6.5,4.08-10.73,9.47-10.8,13.74-.03,2.16,.98,3.66,2.51,5.92,1.63,2.41,3.86,5.71,5.92,11.52,1.94,5.46,2.55,9.78,2.95,12.64,1.15,8.21,.68,16.03-1.71,28.87-1.97,10.55-3.56,15.24-4.72,18.67-1.02,3.02-1.7,5.02-1.96,9.26-.64,10.23,2.51,18.26,8.78,34.26,4.39,11.2,7.35,16.16,10.21,20.96,2.83,4.75,5.51,9.23,9.14,19.33,1.13,3.15,2,5.84,2.76,8.21,2.28,7.09,3.54,10.99,7.93,14.2,7.83,5.72,18.21,4.04,25.79,2.82,10.18-1.64,16.52-4.96,36.93-16.21,31.4-17.31,35.21-19.92,37.01-25.34,3.51-10.57-1.83-22.34-5.72-30.93-2.03-4.47-3.51-6.5-5.56-9.31-1.88-2.58-4.23-5.8-7.82-12.1-3.14-5.51-4.38-8.35-6.09-12.28-1.41-3.24-3.16-7.27-6.62-14.17-8.1-16.18-12.56-25.09-18.07-28.17-4.71-2.63-8.41-2.62-12.33-2.59-4.16,.02-8.47,.05-13.83-3.46-2.67-1.75-5.71-4.47-13.61-18.51-5.52-9.8-8.6-16.55-10.63-21.02-2.88-6.33-3.96-8.69-7.36-10.27-5.81-2.7-13.41-.93-19.39,1.94Z"/><g><path class="cls-5" d="M168.77,830.46c2.13-6.4,17.44-2.48,36.15-8.08,14.1-4.22,24.01-12.02,32.54-18.72,17.78-13.98,21.54-24.41,28.27-22.86,4.78,1.1,5.53,6.96,13.95,25.83,9.79,21.91,11.73,20.62,12.69,26.43,5.27,31.95-54.53,65.66-78.36,66.95-2.97,.16-9.55,.52-15.07-3.5-3.73-2.71-4.55-5.64-9.12-15.76-5.34-11.83-4.91-9.34-10.88-22.65-2.2-4.9,.09-.01-7.81-19.48-2.41-5.94-2.8-6.85-2.37-8.16Z"/><path d="M241.84,891.9c-10.51,5.05-20.57,8.24-27.79,8.63-2.91,.16-9.73,.53-15.41-3.6-3.25-2.36-4.37-4.89-7.36-11.65-.56-1.28-1.2-2.7-1.92-4.31-2.56-5.66-3.76-7.98-5.03-10.44-1.34-2.59-2.73-5.27-5.85-12.22-.98-2.18-1.08-2.45-1.56-3.74-.6-1.59-1.85-4.9-6.25-15.76l-.2-.49c-2.31-5.7-2.67-6.57-2.18-8.03h0c1.28-3.85,6.47-4.25,14.32-4.85,6.16-.47,13.82-1.06,22.18-3.56,14-4.19,23.75-11.86,32.36-18.63,7.57-5.95,12.66-11.33,16.38-15.26,5.11-5.4,8.19-8.66,12.34-7.7,3.71,.85,5.1,4.22,8.81,13.22,1.41,3.41,3.16,7.66,5.5,12.91,5.14,11.51,8.13,16.63,9.91,19.68,1.61,2.77,2.35,4.03,2.82,6.87,1.45,8.82-1.79,18.25-9.64,28.03-9.86,12.28-26.12,23.56-41.41,30.9Zm-72.57-61.27h0c-.35,1.05-.08,1.79,2.16,7.3l.2,.49c4.41,10.87,5.66,14.19,6.26,15.78,.49,1.3,.58,1.53,1.54,3.68,3.1,6.91,4.48,9.58,5.82,12.16,1.22,2.36,2.49,4.8,5.06,10.49,.73,1.61,1.36,3.04,1.93,4.32,2.99,6.76,4,9.03,7.02,11.23,5.38,3.9,11.7,3.56,14.74,3.4,17.53-.95,51.97-18.62,68.45-39.14,7.66-9.54,10.83-18.69,9.43-27.2-.44-2.66-1.1-3.79-2.69-6.52-1.8-3.08-4.8-8.23-9.96-19.79-2.35-5.26-4.1-9.52-5.51-12.93-3.56-8.63-4.89-11.86-8.08-12.6-3.57-.82-6.33,2.1-11.34,7.4-3.74,3.95-8.87,9.37-16.49,15.36-8.68,6.83-18.52,14.56-32.71,18.81-8.47,2.54-16.19,3.13-22.4,3.61-7.43,.57-12.34,.95-13.4,4.14Z"/></g><g><path d="M210.28,859.51l4.88,10.16c.68,1.42,1.23,2.45,1.65,3.1,.42,.65,.88,1.19,1.39,1.61,.87,.7,1.81,.97,2.81,.81l.37,.77-7.91,3.8-.37-.77c.75-.73,1.08-1.72,.97-2.99-.06-.94-.66-2.59-1.79-4.95l-8.96-18.67c-.72-1.5-1.28-2.57-1.69-3.2-.41-.63-.84-1.14-1.29-1.51-.82-.68-1.71-.98-2.69-.9l-.37-.77c.13-.04,.23-.08,.32-.12l1.15-.4c.46-.16,.98-.38,1.56-.66,.92-.44,1.72-.92,2.39-1.42l1.6-1.13c.5-.36,1.02-.67,1.54-.92,.98-.47,1.95-.69,2.91-.67,.96,.03,1.88,.28,2.77,.77,.89,.49,1.73,1.2,2.54,2.14s1.53,2.08,2.17,3.41c1.07,2.22,1.52,4.14,1.35,5.76-.17,1.61-.95,2.89-2.35,3.82,1.28,.28,2.54,.9,3.79,1.85,1.25,.95,3,2.64,5.26,5.07,2.54,2.72,4.4,4.56,5.58,5.54s2.25,1.56,3.21,1.75l.33,.69c-.92,.4-1.77,.61-2.54,.61-.78,0-1.66-.22-2.66-.67-1.25-.59-2.62-1.55-4.11-2.86-1.49-1.31-3-2.91-4.55-4.78l-1.98-2.43c-.93-1.14-1.66-1.94-2.18-2.41-.52-.47-1-.73-1.43-.79-.44-.06-.94,.05-1.51,.33l-2.16,1.04Zm4.33,18.16l3.63-1.74-.83-.48c-.48-.28-.82-.52-1.02-.73s-.41-.56-.65-1.06c-.13-.26-.21-.44-.26-.53-.05-.09-.1-.18-.14-.28l-.2-.42-11.1-23.12-.2-.42c-.05-.1-.09-.2-.14-.3-.04-.1-.12-.27-.24-.52-.22-.46-.36-.83-.4-1.11s-.04-.66,.03-1.14l.03-.17,.19-1.4-.42,.27c-.71,.46-1.36,.84-1.97,1.13-.37,.18-.89,.4-1.56,.66l1.11,.62c.45,.23,.78,.46,.99,.7,.21,.23,.44,.6,.68,1.09,.14,.28,.28,.55,.4,.81l.2,.42,11.1,23.12,.2,.42c.13,.26,.25,.54,.38,.82,.25,.51,.39,.9,.43,1.18,.04,.28,.01,.69-.08,1.24l-.14,.95Zm-4.8-19.15l2.23-1.07c1.28-.62,2.07-1.35,2.36-2.2,.26-.75,.28-1.74,.04-2.96-.23-1.22-.69-2.53-1.36-3.93s-1.49-2.67-2.38-3.66-1.79-1.66-2.69-2.01c-.91-.35-1.74-.33-2.51,.04-1.14,.55-1.57,1.63-1.29,3.24,.16,.91,.66,2.24,1.49,3.97l4.12,8.58Zm21.68,12.62c-.67-.27-1.23-.53-1.7-.8-.46-.26-1.05-.66-1.75-1.2-.87-.72-1.6-1.35-2.17-1.91s-1.58-1.63-3.03-3.2c-1.38-1.51-2.54-2.7-3.49-3.59-.95-.88-1.8-1.55-2.55-2-.75-.45-1.48-.77-2.21-.95,.66,.52,1.25,1.05,1.78,1.61,.29,.31,.87,.97,1.73,2,.26,.3,.51,.6,.75,.89,.24,.29,.5,.59,.75,.92,2.54,3.02,4.75,5.18,6.63,6.48,1.88,1.3,3.63,1.88,5.25,1.75Zm-16.78-14.85c.44-.51,.77-1.11,1.01-1.79s.36-1.39,.38-2.13c.01-.74-.08-1.52-.28-2.36-.2-.84-.5-1.67-.9-2.49-.86-1.8-1.94-3.21-3.23-4.23-1.29-1.02-2.55-1.47-3.79-1.34,.72,.28,1.41,.7,2.07,1.26,.66,.55,1.29,1.24,1.89,2.06s1.15,1.75,1.64,2.79c.86,1.8,1.39,3.35,1.58,4.67s.07,2.51-.38,3.57Z"/><path d="M225.03,832.68l.37,.77c-.82,.76-1.19,1.77-1.11,3.03,.05,.61,.2,1.27,.46,2s.7,1.72,1.31,2.99l6.55,13.65,.42,.87c1.58,3.26,3.2,5.59,4.88,7,.91,.76,1.83,1.25,2.78,1.48,.95,.23,1.79,.16,2.52-.19,1.08-.52,1.75-1.5,2.02-2.95s.14-3.24-.4-5.38c-.43-1.7-1.3-3.92-2.61-6.66l-5.52-11.5c-1.35-2.8-2.63-4.66-3.87-5.57-1.03-.76-2.01-1.07-2.94-.93l-.37-.77,5.78-2.78,.37,.77c-.41,.56-.65,1.22-.7,1.98s.08,1.65,.4,2.7c.32,1.04,.83,2.3,1.53,3.77l5.79,12.07c.97,2.01,1.68,3.66,2.14,4.94,.46,1.28,.79,2.49,.99,3.63,.26,1.5,.32,2.85,.18,4.05-.14,1.21-.48,2.23-1.01,3.07-.53,.84-1.24,1.48-2.12,1.9-.94,.45-1.92,.59-2.96,.43-1.04-.16-2.1-.6-3.17-1.34-1.08-.73-2.13-1.73-3.17-3-1.39-1.71-2.95-4.36-4.69-7.97l-5.71-11.89c-.68-1.42-1.23-2.46-1.64-3.12s-.86-1.19-1.34-1.59c-.86-.72-1.76-1.02-2.69-.9l-.37-.77,7.91-3.8Zm-5.99,4.03l1.26,.67c.42,.21,.74,.43,.97,.68s.46,.61,.7,1.11c.22,.46,.36,.73,.4,.81l.2,.42,6.64,13.82c.56,1.17,1.3,2.57,2.2,4.21,1.73,3.11,3.57,5.33,5.53,6.66,1.96,1.33,3.78,1.6,5.45,.82-2.02,.1-4-.78-5.93-2.63-.88-.83-1.71-1.88-2.51-3.13-.79-1.25-1.7-2.95-2.73-5.09l-7.34-15.28-.2-.42-.39-.82c-.23-.5-.37-.91-.42-1.23s-.02-.72,.08-1.19l.26-1.4-4.18,2.01Zm14.77-7.09l-2.19,1.05c.5,.21,.94,.46,1.32,.77,.38,.3,.82,.74,1.3,1.32-.29-1.18-.44-2.22-.44-3.14Z"/><path d="M263.34,853.96l-.3,.14-19.69-23.62,7.3,17.09c.4,.94,.8,1.83,1.2,2.65,1.16,2.41,2.29,4.14,3.41,5.21,1.12,1.06,2.35,1.58,3.69,1.54l.37,.77-6.79,3.26-.37-.77c.4-.72,.62-1.62,.67-2.71,.05-1.09-.08-2.27-.38-3.54-.35-1.4-1.12-3.51-2.33-6.34l-7.78-18.2c-.88-1.02-1.64-1.69-2.29-2-.65-.32-1.3-.35-1.94-.1l-.37-.77,6.02-2.89c.04,.18,.08,.3,.09,.35,.21,.83,.41,1.46,.62,1.89,.38,.79,1.19,1.93,2.42,3.4l13.93,16.68-4.89-20.38c-.4-1.63-.78-2.84-1.15-3.61s-1.02-1.69-1.91-2.7l5.98-2.87,.37,.77c-.72,.63-1.09,1.4-1.11,2.31-.02,.91,.31,2.08,.99,3.49,.21,.44,.43,.86,.64,1.24l.33,.6,9.85,17.85c.14,.24,.25,.45,.35,.62,.1,.17,.39,.68,.87,1.5,.89,1.54,1.71,2.61,2.45,3.21,.74,.6,1.56,.84,2.46,.74l.37,.77-7.91,3.8-.37-.77c.66-.85,1.03-1.72,1.11-2.62,.07-.9-.15-1.88-.66-2.95-.2-.41-.55-1.07-1.06-1.99l-11.36-20.53,7.18,29.48Zm-7.17,3.75c-.81-.67-1.42-1.24-1.83-1.72s-.86-1.13-1.34-1.96c.28,1.09,.44,1.98,.48,2.69,.04,.71,0,1.49-.14,2.35l2.83-1.36Zm6.29-5.09l-.86-3.54-16.6-19.9c-.84-1.03-1.39-1.82-1.65-2.34s-.41-1.03-.5-1.55l-2.86,1.37c.78,.44,1.47,.97,2.05,1.6,.77,.79,1.48,1.59,2.15,2.41l18.26,21.96Zm7.18-1.38l3.82-1.83-1.15-.73c-.5-.31-1.15-1.18-1.95-2.62l-12.71-22.96c-.22-.42-.37-.71-.45-.88-.18-.38-.3-.72-.34-1.04-.05-.31-.04-.74,.02-1.27l.17-1.45-2.88,1.38,14.66,26.52,.31,.52c.21,.39,.36,.68,.45,.88,.2,.41,.31,.75,.34,1.02,.03,.27,0,.67-.08,1.19l-.22,1.26Z"/></g></g><g><path class="cls-29" d="M1720.28,767.4c-3.75,2.54-2.55,6.98-9.14,16.26-3.11,4.38-6.09,7.18-8.2,9.14-5.3,4.93-11.34,8.91-23.37,14.37-17.71,8.04-18.15,5.57-25.55,10.09-8.44,5.16-13.01,12.03-22.14,25.76-12.82,19.29-9.21,20.6-20.9,37.16-7.5,10.62-11.62,13.81-11.76,20.9-.19,9.27,6.58,16.43,12.05,22.06,6.83,7.03,12.65,10.1,33.02,20.1,31.39,15.41,35.05,16.7,40.43,15.1,10.37-3.1,16.75-13.87,21.34-21.63,4.65-7.86,3.31-9.28,9.44-22.21,4.77-10.07,6.08-10.26,13.72-24.39,8.54-15.79,12.8-23.81,12.19-29.83-1.1-10.94-9.22-12.26-9.58-23.73-.09-2.86,.23-6.48,6.97-20.54,11.06-23.07,15.79-25.12,14.66-31.5-2.29-12.92-24.97-22.69-33.17-17.13Z"/><path class="cls-10" d="M1667.44,823.28s8.75,6.9,20.9,11.76c20.82,8.32,30.99-1.24,40.21,7.33,7.58,7.04,6.86,19.21,6.6,23.59-.63,10.72-5.27,14.82-14.01,30.34-16.56,29.4-14.8,41.12-28.6,48.12-7.08,3.59-14.31,3.94-17.49,3.92-7.93-.05-13.81-3.04-25.84-8.42-10-4.48-17.44-9.35-22.06-12.41-8.37-5.53-12.35-7.59-16.11-12.12-2.53-3.04-6.67-8.16-5.88-14.01,.59-4.35,3.64-7.21,4.57-8.13,16.51-16.23,36.31-78.22,51.38-75.04,1.68,.35,1.24,1.08,6.31,5.08Z"/><g class="cls-39"><ellipse class="cls-30" cx="1737.26" cy="773.89" rx="4" ry="21.98" transform="translate(211.04 1908.63) rotate(-60.64)"/><path d="M1735.06,777.81c-7.88-4.43-19.01-12.07-17.39-14.94,1.62-2.88,13.92,2.67,21.8,7.1,7.88,4.43,19.01,12.07,17.39,14.94-1.62,2.88-13.92-2.67-21.8-7.1Zm3.92-6.97c-11.6-6.53-19.72-8.76-20.44-7.48s5.41,7.06,17.01,13.58c11.6,6.53,19.72,8.76,20.44,7.48s-5.41-7.06-17.01-13.58Z"/></g><path d="M1624.75,933.85c-6.17-3.47-9.87-6.26-13.84-10.36-5.23-5.38-12.38-12.76-12.19-22.42,.11-5.52,2.54-8.73,6.96-14.56,1.43-1.89,3.05-4.03,4.89-6.62,5.85-8.29,7.88-12.79,10.02-17.56,2.2-4.9,4.48-9.97,10.87-19.59,9.16-13.79,13.76-20.7,22.29-25.92,3.57-2.18,5.55-2.76,8.55-3.64,3.29-.96,7.79-2.27,17.05-6.48,11.24-5.1,17.53-8.97,23.24-14.28,1.99-1.85,4.99-4.65,8.13-9.07,3.33-4.69,4.67-8.17,5.64-10.71,.97-2.52,1.66-4.34,3.63-5.67h0c3.7-2.51,10.44-2.19,17.6,.83,6.68,2.82,14.97,8.87,16.34,16.62,.69,3.89-.72,6.28-4.13,12.06-2.51,4.27-5.96,10.11-10.58,19.74-6.55,13.65-7.01,17.4-6.92,20.31,.18,5.81,2.36,8.89,4.68,12.16,2.14,3.03,4.36,6.15,4.9,11.54,.63,6.29-3.94,14.76-12.25,30.12-3.52,6.5-5.72,10.09-7.49,12.98-2.12,3.46-3.65,5.96-6.22,11.38-2.94,6.2-4.16,9.77-5.14,12.63-1.05,3.07-1.88,5.5-4.32,9.62-4.67,7.89-11.07,18.7-21.63,21.85-5.62,1.68-9.43,.26-40.79-15.13-8.63-4.23-14.67-7.23-19.32-9.85Zm116.08-163.34c-1.23-.69-2.45-1.29-3.62-1.78-6.74-2.85-13.28-3.21-16.65-.93-1.71,1.16-2.32,2.76-3.26,5.2-.99,2.59-2.36,6.14-5.76,10.93-3.2,4.51-6.25,7.34-8.27,9.22-5.79,5.39-12.16,9.31-23.5,14.46-9.32,4.23-13.87,5.56-17.18,6.53-2.92,.85-4.85,1.42-8.31,3.53-8.35,5.1-12.9,11.95-21.98,25.61-6.35,9.56-8.61,14.59-10.8,19.45-2.16,4.81-4.21,9.36-10.11,17.72-1.84,2.61-3.47,4.76-4.91,6.65-4.29,5.66-6.65,8.78-6.76,13.97-.18,9.25,6.8,16.45,11.91,21.71,6.85,7.06,12.92,10.2,32.88,20,30.72,15.08,34.84,16.63,40.06,15.07,10.18-3.04,16.46-13.65,21.05-21.4,2.39-4.03,3.16-6.3,4.24-9.44,.99-2.89,2.22-6.48,5.18-12.73,2.59-5.47,4.13-7.99,6.27-11.48,1.76-2.87,3.95-6.45,7.46-12.93,8.21-15.19,12.74-23.55,12.14-29.54-.52-5.12-2.56-8.01-4.72-11.06-2.3-3.24-4.67-6.6-4.86-12.71-.09-3.04,.37-6.91,7.02-20.77,4.64-9.67,8.24-15.78,10.62-19.82,3.37-5.72,4.63-7.85,4-11.38-1.07-6.02-6.61-10.99-12.12-14.09Z"/><g><path class="cls-5" d="M1645.96,823.42c6.17-1.83,11.48,12.28,26.1,23.84,11.01,8.71,22.54,12.2,32.44,15.2,20.66,6.25,30.87,3.48,33.34,9.59,1.75,4.34-2.42,8.13-12.56,25.04-11.78,19.64-9.7,20.46-13.72,24.39-22.09,21.6-81.17-6.7-95.22-24.62-1.75-2.24-5.63-7.18-5.52-13.7,.08-4.4,1.92-6.64,7.33-15.75,6.33-10.65,4.62-8.95,11.76-20.9,2.63-4.4,.06,.06,10.96-16.77,3.33-5.14,3.82-5.94,5.08-6.31Z"/><path d="M1637.91,914.17c-9.7-5.46-17.7-11.57-21.96-17.01-1.72-2.19-5.74-7.32-5.62-14.02,.07-3.83,1.43-6.09,5.08-12.13,.69-1.14,1.46-2.41,2.32-3.86,3.03-5.1,4.18-7.31,5.41-9.65,1.29-2.47,2.63-5.02,6.35-11.26,1.17-1.96,1.32-2.19,2.07-3.27,.92-1.34,2.82-4.13,8.9-13.51l.27-.42c3.19-4.92,3.68-5.68,5.08-6.1h0c3.71-1.1,6.86,2.73,11.63,8.54,3.74,4.55,8.39,10.22,14.92,15.39,10.94,8.65,22.27,12.08,32.27,15.11,8.79,2.66,15.79,3.7,20.9,4.45,7.01,1.04,11.25,1.67,12.77,5.43,1.36,3.37-.51,6.3-5.51,14.12-1.9,2.97-4.26,6.66-7.08,11.36-6.18,10.31-8.55,15.45-9.97,18.52-1.28,2.77-1.86,4.04-3.83,5.97-6.1,5.96-15.25,8.59-27.19,7.8-15-.99-32.71-7.53-46.82-15.46Zm8.19-90.27h0c-1.01,.3-1.44,.92-4.53,5.68l-.28,.42c-6.09,9.4-8,12.19-8.91,13.53-.75,1.09-.88,1.29-2.03,3.22-3.71,6.21-5.04,8.75-6.32,11.21-1.18,2.25-2.39,4.57-5.43,9.7-.86,1.45-1.63,2.73-2.32,3.87-3.65,6.04-4.87,8.07-4.94,11.63-.11,6.34,3.62,11.09,5.41,13.38,10.34,13.18,43,30.44,68.06,32.09,11.65,.77,20.54-1.76,26.42-7.52,1.84-1.8,2.36-2.93,3.62-5.67,1.42-3.09,3.8-8.25,10.02-18.62,2.83-4.72,5.19-8.42,7.09-11.39,4.8-7.51,6.6-10.32,5.43-13.21-1.31-3.24-5.1-3.8-11.99-4.82-5.14-.76-12.18-1.8-21.03-4.48-10.09-3.05-21.52-6.51-32.61-15.28-6.62-5.23-11.31-10.95-15.08-15.54-4.51-5.49-7.49-9.13-10.57-8.21Z"/></g><g><path d="M1645.96,871.77l-5.27,9.38c-.74,1.31-1.24,2.3-1.52,2.99-.28,.68-.44,1.34-.5,1.97-.07,1.06,.23,1.94,.9,2.64l-.4,.71-7.3-4.1,.4-.71c.98,.19,1.93-.1,2.87-.88,.7-.57,1.66-1.94,2.89-4.11l9.69-17.22c.78-1.38,1.3-2.41,1.58-3.08,.27-.67,.43-1.28,.47-1.84,.09-1.01-.17-1.88-.77-2.6l.4-.71c.1,.08,.19,.14,.27,.18l.94,.68c.38,.27,.84,.56,1.37,.86,.85,.48,1.66,.84,2.42,1.09l1.76,.63c.56,.19,1.08,.43,1.57,.7,.9,.51,1.61,1.14,2.11,1.91,.51,.77,.81,1.63,.92,2.59,.1,.96,0,2.01-.28,3.16s-.79,2.34-1.48,3.57c-1.15,2.05-2.41,3.45-3.76,4.21-1.35,.75-2.78,.84-4.27,.25,.48,1.15,.69,2.47,.63,3.97-.06,1.5-.42,3.79-1.09,6.88-.73,3.47-1.16,5.94-1.27,7.39-.11,1.46,.01,2.61,.39,3.46l-.36,.64c-.82-.5-1.44-1.05-1.87-1.65-.43-.6-.74-1.42-.93-2.44-.22-1.31-.23-2.9-.01-4.78,.21-1.88,.63-3.94,1.25-6.17l.82-2.87c.38-1.35,.61-2.36,.69-3.02,.08-.66,.02-1.18-.17-1.55-.19-.37-.56-.7-1.08-1l-2-1.12Zm-11.83,13.32l3.35,1.88-.08-.91c-.05-.53-.04-.92,.01-1.19s.21-.63,.47-1.09c.14-.24,.23-.41,.27-.49,.04-.08,.09-.17,.14-.27l.22-.39,12-21.33,.22-.39c.05-.09,.1-.18,.16-.27,.06-.09,.15-.25,.28-.48,.24-.43,.46-.73,.65-.93s.5-.39,.91-.6l.14-.07,1.19-.62-.44-.19c-.75-.3-1.4-.61-1.96-.92-.34-.19-.8-.48-1.37-.86l.12,1.21c.06,.48,.06,.86,0,1.16-.06,.29-.23,.67-.48,1.12-.14,.26-.28,.52-.41,.76l-.22,.39-12,21.33-.22,.39c-.14,.24-.28,.49-.43,.75-.27,.47-.49,.8-.69,.98-.19,.18-.53,.39-1.01,.62l-.82,.41Zm12.34-14.23l2.05,1.16c1.19,.67,2.19,.88,3.01,.64,.73-.21,1.51-.74,2.33-1.58,.82-.85,1.6-1.92,2.33-3.21s1.27-2.63,1.56-3.86,.32-2.31,.1-3.2c-.23-.9-.69-1.55-1.4-1.95-1.06-.59-2.13-.34-3.24,.76-.63,.63-1.39,1.74-2.29,3.34l-4.45,7.92Zm2,23.86c-.16-.67-.26-1.26-.31-1.76-.05-.51-.06-1.18-.02-2.03,.08-1.08,.18-1.99,.31-2.74s.41-2.12,.85-4.12c.43-1.9,.72-3.47,.9-4.69,.17-1.22,.23-2.25,.17-3.09-.06-.83-.21-1.58-.47-2.25-.05,.8-.14,1.55-.28,2.27-.08,.4-.29,1.21-.62,2.44-.1,.37-.19,.72-.28,1.07-.09,.35-.19,.71-.3,1.09-.97,3.64-1.45,6.55-1.44,8.73,.01,2.18,.51,3.87,1.5,5.06Zm2.43-21.25c.64,.06,1.29,0,1.96-.19s1.29-.48,1.87-.87c.58-.39,1.14-.9,1.69-1.51,.54-.62,1.03-1.3,1.46-2.07,.93-1.66,1.45-3.27,1.54-4.84,.1-1.57-.25-2.8-1.03-3.7,.17,.72,.22,1.49,.15,2.31-.07,.82-.26,1.69-.58,2.6s-.74,1.85-1.28,2.81c-.93,1.66-1.86,2.92-2.78,3.79s-1.92,1.43-3,1.66Z"/><path d="M1675.01,868.62l-.4,.71c-1.04-.23-2.03,.04-2.98,.79-.45,.37-.89,.85-1.31,1.46s-.97,1.49-1.62,2.66l-7.08,12.59-.45,.8c-1.69,3.02-2.62,5.56-2.8,7.64-.1,1.13,.02,2.12,.36,2.98,.34,.86,.85,1.48,1.53,1.87,.99,.56,2.13,.55,3.41-.03s2.61-1.67,3.98-3.26c1.1-1.26,2.35-3.16,3.77-5.69l5.97-10.61c1.45-2.59,2.2-4.61,2.24-6.07,.03-1.22-.26-2.16-.88-2.81l.4-.71,5.33,3-.4,.71c-.67-.02-1.31,.16-1.93,.54s-1.25,.97-1.89,1.79c-.64,.82-1.34,1.91-2.11,3.26l-6.26,11.13c-1.04,1.86-1.94,3.31-2.69,4.38-.75,1.06-1.51,1.98-2.29,2.76-1.03,1.02-2.05,1.81-3.07,2.36-1.02,.55-2,.85-2.96,.89-.95,.05-1.83-.16-2.64-.62-.86-.49-1.52-1.18-1.96-2.08-.45-.9-.68-1.97-.69-3.21-.02-1.24,.19-2.61,.61-4.12,.57-2.02,1.8-4.7,3.67-8.03l6.17-10.97c.74-1.31,1.25-2.31,1.54-2.99s.46-1.33,.51-1.92c.1-1.07-.16-1.93-.77-2.6l.4-.71,7.3,4.1Zm-6.43-2.48l.16,1.35c.07,.44,.07,.81,0,1.13s-.23,.7-.48,1.15c-.24,.43-.38,.68-.41,.76l-.22,.39-7.17,12.75c-.61,1.08-1.3,2.42-2.08,4.02-1.48,3.05-2.21,5.7-2.18,7.97,.03,2.26,.81,3.83,2.34,4.71-1.19-1.53-1.58-3.55-1.19-6.07,.17-1.14,.53-2.37,1.08-3.67,.55-1.3,1.38-2.94,2.49-4.92l7.93-14.1,.22-.39,.42-.75c.26-.45,.51-.78,.73-1s.55-.41,.98-.59l1.24-.56-3.85-2.17Zm13.63,7.67l-2.02-1.14c.11,.5,.15,.99,.13,1.45-.03,.47-.13,1.05-.32,1.74,.76-.87,1.5-1.56,2.21-2.06Z"/><path d="M1679.33,910.21l-.27-.15,7.69-28.32-9.37,15.06c-.52,.83-.99,1.63-1.42,2.39-1.25,2.22-1.98,4.06-2.21,5.52-.22,1.46,.05,2.7,.81,3.73l-.4,.71-6.26-3.52,.4-.71c.78-.08,1.61-.4,2.49-.96,.88-.56,1.73-1.3,2.56-2.24,.9-1.03,2.13-2.8,3.68-5.29l9.97-16.04c.32-1.24,.42-2.21,.31-2.89-.11-.68-.44-1.21-.99-1.58l.4-.71,5.55,3.12c-.12,.13-.19,.22-.22,.26-.54,.62-.92,1.12-1.14,1.52-.41,.73-.86,1.98-1.34,3.75l-5.42,20.02,13.26-14.98c1.06-1.21,1.79-2.16,2.19-2.88s.77-1.72,1.07-2.97l5.52,3.1-.4,.71c-.89-.22-1.69-.08-2.41,.4-.72,.48-1.45,1.38-2.19,2.69-.23,.41-.44,.8-.62,1.18l-.29,.59-8.56,17.47c-.11,.24-.21,.44-.29,.62-.08,.17-.32,.67-.7,1.5-.72,1.54-1.1,2.76-1.17,3.67-.06,.91,.19,1.68,.77,2.32l-.4,.71-7.3-4.1,.4-.71c1.02,.06,1.91-.13,2.65-.57,.74-.43,1.39-1.14,1.95-2.13,.21-.38,.54-1.02,.97-1.92l9.84-20.11-19.12,21.74Zm-6.85-3.55c.08-1,.19-1.79,.35-2.37s.42-1.29,.79-2.12c-.7,.81-1.31,1.42-1.84,1.85-.53,.42-1.17,.81-1.92,1.18l2.62,1.47Zm7.42,2.13l2.3-2.61,6.48-23.87c.35-1.23,.66-2.08,.93-2.57s.58-.89,.94-1.24l-2.64-1.48c.08,.85,.04,1.68-.13,2.48-.2,1.03-.43,2.03-.7,3l-7.18,26.29Zm5.01,4.86l3.52,1.98-.06-1.29c-.03-.56,.3-1.54,.99-2.96l10.99-22.5c.21-.4,.35-.68,.44-.83,.2-.35,.4-.63,.62-.84,.22-.21,.55-.44,1-.68l1.23-.66-2.66-1.5-12.71,25.98-.24,.53c-.19,.37-.34,.65-.44,.84-.21,.38-.42,.66-.61,.83-.19,.17-.52,.37-.98,.59l-1.11,.52Z"/></g></g><g><line class="cls-1" x1="834.7" y1="1083.93" x2="821.16" y2="892.84"/><path class="cls-23" d="M904.07,597.1c-1.25-2.75-7.07-17.27-20.3-33.37-6.07-7.38-9.19-11.09-13.54-12.13-17.69-4.25-42.28,27.26-54.15,42.47-23.22,29.74-31.26,52.57-43.99,51.56-9.18-.72-12.73-13.18-20.3-12.13-8.42,1.16-11.56,17.58-13.54,24.27-17.99,60.9-163.78,75.03-182.74,66.73-10.8-4.72-15.78-8.85-15.78-8.85-4.74-3.93-6.19-6.72-7.91-6.32-4.46,1.06,2.37,20.66-6.77,27.3-6.56,4.76-18.35,.68-20.3,0-17.92-6.21-17.84-21.22-40.61-54.6-14.78-21.66-20.04-22.99-23.69-36.4-4.39-16.12,.22-25.15-6.77-30.33-9.08-6.73-31.45-2.29-43.99,9.1-22,19.99-11.08,58.98,2.03,105.75,7.03,25.08,6.64,13.05,29.19,74.25,11.71,31.8,14.66,42.77,26.31,47.49,16.32,6.62,32.93-5.83,67.68-21.23,40.97-18.16,33.87-7.94,104.91-33.37,34.29-12.28,63.33-24.46,111.68-36.4,35.03-8.65,42.75-5.34,47.38-3.03,27.37,13.62,6.19,54.45,28.93,115.65,18.37,49.43,42.88,51.59,47.38,94.03,3.37,31.78-7.44,58.3-13.54,72.8-21.09,50.16-58.05,76.19-52.62,81.51,4.31,4.22,24.78-13.74,64.3-24.27,15.41-4.1,36.22-3.75,77.83-3.03,28.99,.5,43.48,.74,57.53,3.03,48.46,7.89,55.01,25.5,77.83,21.23,17.55-3.28,17.01-14.2,59.39-60.28,32.84-35.72,43.15-40.02,50.76-60.66,4.68-12.71,4.31-26.84,3.38-54.6-1.98-59.22-11.46-73.65-1.86-103.52,7.34-22.84,22.31-43.52,30.46-42.47,6.66,.86,6.29,16.33,13.54,45.5,14.74,59.31,33.01,62.64,30.46,91,0,0-2.08,23.16,6.77,36.4,3.22,4.81,7.37,8.87,7.37,8.87,0,0,.45,.44,.89,.85,6.23,5.84,25.85,13.81,25.59,14.54-.32,.88-28.66-11.02-37.23-3.03-5.17,4.82,1.74,12.32-3.38,21.23-5.95,10.34-19.44,7.49-27.07,15.17-15.32,15.39,1.25,64.8,30.46,72.8,15.7,4.3,21.51-7.08,54.15-9.1,29.54-1.83,39.62,6.59,47.38,0,3.18-2.7,9.04-10.54-13.54-69.76-17.32-45.43-24.38-50.3-23.69-69.76,.83-23.51,11.41-24.49,10.15-48.53-1.53-29.18-18.39-52.06-20.3-54.6-10.03-13.28-14.91-12.83-23.69-27.3-6.27-10.34-15.28-25.17-10.15-39.43,4.27-11.89,15.11-14.35,13.54-21.23-2.27-9.89-25.85-9.95-27.07-18.2-.93-6.31,11.97-12.32,16.92-15.17,41.52-23.9,39.62-122.96,10.15-133.46-14.86-5.3-26.28,15.64-74.45,24.27-15.64,2.8-27.32,2.9-37.23,3.03-119.22,1.62-257.52,12.09-274.11-24.27Z"/><path class="cls-8" d="M944.68,682.03c-7.26,6.71-5.11,8.69-27.07,51.56-18.95,36.99-20.26,34.97-27.07,51.56-7.49,18.26-10.64,36.44-16.92,72.8-4.89,28.28-5.71,42.41,3.38,48.53,5.29,3.56,12.05,3.16,13.54,3.03,12.43-1.02,19.99-12.11,27.07-21.23,19.98-25.75,20.57-15.88,47.38-48.53,16.58-20.2,13.06-19.95,30.46-42.47,24.42-31.59,33.83-35.27,54.15-63.7,18.51-25.91,27.77-38.86,23.69-48.53-10.79-25.59-94.72-34.35-128.6-3.03Z"/><polygon class="cls-12" points="888.71 891.9 885.59 890.74 965.11 719.36 968.24 720.53 888.71 891.9"/><polygon class="cls-12" points="903.81 887.59 900.95 885.96 972.02 785.86 974.87 787.49 903.81 887.59"/><line class="cls-11" x1="905.76" y1="774.54" x2="882.07" y2="877.67"/><polygon class="cls-12" points="883.73 877.98 880.42 877.37 904.11 774.24 907.42 774.85 883.73 877.98"/><path class="cls-16" d="M1240.15,467.41c-8.39,10.88-20.21,20.59-26.39,13.28-6.19-23.55-4.41-24.29,3.98-26.89,8.39-18.59,20.21-22.56,26.39-13.28,6.19,14.77,4.41,18.45-3.98,26.89Z"/><path class="cls-17" d="M1222.57,462.45c-5.73,.46-10.35,45.43-17.86,29.37-5.8,27.48-13.82,11.02-21,25.55-7.57,4.52-15.12,19.01-23.17,26.98-8.1,6.54-16.87,2.2-25.24,10.98-9.18-12.12-17.17,9.32-25.99,8.93-8.88-1.9-17.1,12.66-25.9,8.7-8.43,5.41-16.47,17.24-25.15,5.31-7.92,7.85-16.93-19.39-24.16-11.37-8.82-32.63-14.94-15.75-20.55-5.72-5.03,25.08-11.71-12.38-16.59-23.97-4.61-4.58-8.63-14.44-11.82-24.08-3.2-9.64-5.57-19.06-6.89-22.74-3.72-35.19-2.1-18.47,.81-57.64,3.64-20.32,10.72-41.38,21.4-62.14,42.75-83.05,127.13-129.82,188.46-104.46,46,19.02,65.97,73.22,55.05,134.16-3.64,20.32-10.53,46.13-21.4,62.14Z"/><ellipse class="cls-6" cx="1037.74" cy="393.87" rx="13.72" ry="26.94" transform="translate(449.51 1335.16) rotate(-78.78)"/><ellipse class="cls-6" cx="1138.66" cy="416.96" rx="13.07" ry="26.86" transform="translate(456.62 1419.57) rotate(-75.89)"/><path d="M1068.2,298.33c4.25,17.68,11.43,39.47,24,62.69,6.48,11.97,13.35,22.4,20,31.34"/><path d="M1168.5,407.76c10.76,5.37,25.09,11.02,43.03,14.61,9.25,1.85,17.98,2.86,25.88,3.35"/><path d="M1115.58,383.26c2.81-.82,5.6-.75,23.69,6.07,23.2,8.74,34.86,13.21,37.23,18.2,5.88,12.39-6.19,32.06-23.69,39.43-2.34,.99-18.33,7.44-33.84,0-11.33-5.43-15.56-14.98-16.92-18.2-7.44-17.56-.25-41.44,13.54-45.5Z"/><ellipse class="cls-19" cx="1036.05" cy="393.87" rx="11.84" ry="10.62"/><ellipse cx="1036.05" cy="393.87" rx="5.08" ry="4.55"/><path class="cls-21" d="M1084.28,379.14c-30.33-9.08-35.19-10.74-23.84-10.55-21.06-3.53-25.91-5.19-53.8-16.74"/><path class="cls-18" d="M1083.35,380.67c-29.68-10.18-34.53-11.85-25.01-8.58-19.23-6.6-24.09-8.26-53.08-18.21,28.99,9.94,29.54,9.08,2.87-3.99,26.67,13.08,31.52,14.74,54.11,15.26-12.88,2.81-8.02,4.48,22.88,12.44-30.9-7.96-31.45-7.09-1.77,3.09Z"/><g><path class="cls-4" d="M350.28,629.24c-.29-1.18-1.23-4.16,.49-6.36,1.65-2.12,4.69-2.17,10.15-3.03,5.93-.94,2.89-.97,13.54-3.03,11.51-2.23,11.99-1.6,16.92-3.03,5.56-1.62,6.3-2.83,13.54-6.07,14.66-6.56,16.84-3.96,22.84-8.19,10.47-7.38,9.06-19.06,14.09-19.11,4.72-.05,4.45,9.23,14.09,14.86,8.55,4.99,15.62,1.7,18.78,6.37,2.97,4.39,.43,12.77-4.7,14.86-8.45,3.45-20.34-11.66-25.83-8.49-3.34,1.93-2.06,9.31,0,21.23,2.24,12.93,4.49,15.34,2.35,19.11-3.8,6.67-17.07,9.95-25.83,6.37-8.03-3.28-9.21-11.07-14.09-10.62-2.22,.21-3.37,1.95-9.39,10.62-5.7,8.21-8.57,12.32-9.39,12.74-8.02,4.03-15.5-6.52-32.87-6.37-11.36,.1-15.5,4.67-18.78,2.12-4.84-3.75,17.34-20.77,14.09-33.97Z"/><path class="cls-7" d="M455.68,589.52c-2.41,4.99-14.05,9.46-37.23,18.2-22.14,8.35-23.57,7.36-43.99,15.17-20.89,7.99-22.18,10.09-27.07,9.1-18.47-3.73-23.72-38.48-27.07-60.66-1.51-9.98-7.87-52.09,10.15-60.66,3.43-1.63,8.09-2.22,10.15-6.07,2.83-5.28-.93-13.53-6.77-18.2-9.8-7.83-19.93-1.15-33.84-6.07-19.68-6.96-26.13-29.79-27.07-33.37-4.89-18.59,1.86-38.49,16.92-51.56,15.65-13.58,34.51-14.78,40.61-15.17,7.58-.48,20.34-1.29,30.46,6.07,8.15,5.93,12.75,15.82,10.15,18.2-2.47,2.27-9.26-4.29-23.69-6.07-12.97-1.6-23.27,1.75-27.07,3.03-6.36,2.14-14.26,4.81-20.3,12.13-2.4,2.91-6.82,9.36-6.77,18.2,.01,1.72,.28,13.86,10.15,21.23,4.09,3.06,9.55,4.1,20.3,6.07,17.5,3.2,22.4,1.38,30.46,6.07,5.67,3.29,8.93,7.5,10.15,9.1,7.64,10.03,3.84,16.67,10.15,21.23,5.34,3.86,9.71,.29,20.3,3.03,9.35,2.42,15.16,7.57,20.3,12.13,9.72,8.62,13.65,16.95,20.3,30.33,19.84,39.89,23.13,42.68,20.3,48.53Z"/></g><path class="cls-4" d="M1366.1,1108.49c-.55,1.45-1.72,5.18-4.83,6.84-2.98,1.6-5.81,.26-11.44-1.28-6.11-1.67-3.33-.24-14.55-2.83-12.13-2.8-12.14-3.72-17.67-4.38-6.24-.74-7.74,.25-16.64,.54-18.02,.58-18.23-3.31-26.67-1.36-14.71,3.4-21.45,17.01-26.11,14.77-4.38-2.11,2.25-12.29-2.76-22.95-4.44-9.46-13.22-9.04-12.92-15.67,.28-6.23,8.38-14.38,14.54-14.35,10.15,.04,10.72,22.27,17.95,21.26,4.4-.61,8.3-9.4,14.59-23.58,6.83-15.39,6.41-19.1,10.97-22.29,8.08-5.67,22.56-3.23,28.16,4.75,5.14,7.32,.87,16.51,5.68,18.24,2.18,.78,4.44-.62,15.95-7.49,10.9-6.51,16.36-9.76,17.4-9.85,10.16-.81,9.8,14.33,25.9,22.13,10.53,5.1,17.48,1.91,18.76,6.24,1.88,6.38-30.25,15.12-36.32,31.27Z"/><path class="cls-4" d="M953.14,559.18c8.81,12.35,18.78,17.49,24.28,19.72,5.46,2.21,10.12,3.06,19.02,4.54,14.25,2.36,23.48,1.28,50.19,6.59,36.4,7.23,43.11,13.97,54.66,16.09,0,0,5.56,.8,11.4,.6,25.97-.9,50.61-28.63,63.79-23.27,9.19,3.74,1.02,18.77,14.86,37.17,10.09,13.41,19.89,12.97,22.02,22.25,3.7,16.09-23.56,36.93-31.46,33.37-6.03-2.71,3.39-17.77-6.29-27.81-9.64-10-33.23-9.87-37.75-2.78-5.06,7.93,16.95,19.59,12.58,33.37-3.29,10.37-20.61,19.08-34.61,16.69-24.21-4.13-28.47-39.75-44.04-38.94-9.39,.49-9.14,13.51-25.17,25.03-21.09,15.16-55.44,16.99-66.07,5.56-6.79-7.3-1.06-16.99-9.44-22.25-8.28-5.19-21.18-.33-22.02,0-14.18,5.54-13.14,17.42-22.02,19.47-15.43,3.57-44.94-26.23-37.75-41.72,4.89-10.55,25.64-11.94,25.17-13.91-.82-3.45-58.29,8.98-62.92,0-3.27-6.35,19.11-24.97,101.56-69.78Z"/><path class="cls-22" d="M970.6,459.19c-7.66,3.39-13.74,2.05-19.6,18.18-4.82,7.36-6.9,11.15-6.13,21.19,.42,12.95,12.1-20.3,14.69-4.47,4.04-16.94,2.92,1.22,3.63-2.15,2.12-6.86-17.72,9.54-22.76,43.85-2.6,21-2.03,12.35,1.49,16.88,7.33-.6,26.42-9.72,27.72-26.63,1.78-18.1-6.58-7.85-15.78,14.52-9.74,26.83-16.52,33.85-14.4,32.8,.85-4.43,.89,8.73,5.45,13.07,9.89,3.92,26.97-.71,29.71-13.89,.65,5.86-30.69,42.92-25.73,39.38,1.96,11.36,22.64,5.94,30.22,11.26,9.63-26.21,11.22-53.56,9.4-20.02,1.3,11.84-1.34,33.96,7.44,25.82,3.12,11.19,8.84-16.62,14.36-2.81,3.29,20.9,1.88,39.18,12.88,9.6,5.26-38.89,17.21-19.65,20.8,1.99,6.04-3.43,6.54-39.98,5.93-20.35-1.91,30.13-1.7,34.15,7.94,21.68,2.49,10.92,5.8,25.67,10.97,21.41,3.55,9.26,11.19-19.26,13.3-19.09,3.64-5.45,2.85-19.92,4.95-12.08,4.56-13.01,1.72,38.96,13.38,5.46,13.12-9.73,24.9-2.93,24.76-1.81,.52-4.35,2.2-18.45,0,0,5.22-43.84-.45,7.98,1.91-16.05,3.72-32.98-3.3,24.31,.55-4.64-1.27,28.39,12.16-19.16,20.31,6.13,4.1-18.1,18.87-19.01,21.79-6.28-1.74,34.11,5.77-39.2,1.97-16.55-.53-1.44,3.16-40.05-3.03-13,2.01-30.57,2.8-45.18-1.93-4.22-.96,13.11,17.68-4.79,21.79-6.28,.38,15.91-4.17,15.46,1.97-16.55,1.24,2.29,8.29-31.05,4.95-12.08-.41-1.45,1.05-26.2-2.31-4.74-4.21,4.76-5.95-12.14-7.1-4.53-1.21,5.52,16.71,20.93,22.77-14.56,4.98-32.22-7.91,20.76-1.49-16.88,5.16-29.1,13.11-48.74,11.39-7.28,9.73-32.57,3.65-38-8.94-42.7-2.95-13.72-8.62-39.93-16.84-5.8-.63-23.06-.15-5.84-5.93,20.35-1.93,3.85-7.64,35.73-8.91,15.88-7.37-17.13-11.37,27.91-17.81,31.77-4.36-5.87-19.75,62.16-27.72,26.63-1.37-44.43-12.6,12.87-16.75-.97-5.16-5.32-13.1,.99-24.37-7.15-10.76-9.27-20.79,17.03-25.13,1.59-9.5,27.87-12.9,10.5-20.44-1.77-11.45,15.27-14.44-31.81-22.79-14.73-4.05-11.93-8.18-32.2-18.83-18.54-8.65-41.9-17.97-25.79-22.49-30.79-2.65-20.65-6.42-12.69-11.21-10.1Z"/><ellipse class="cls-13" cx="1036.05" cy="459.09" rx="57.97" ry="15.96" transform="translate(-44.97 799.01) rotate(-41.35)"/><path class="cls-24" d="M1227.25,386.29c-1.28-20.89-5.47-28.19-6.77-30.33-8.42-13.86-22.6-19.9-40.61-27.3-28.74-11.81-54.4-14.43-67.68-15.17-27.24-1.52-48.86-2.72-67.68,9.1-16.38,10.29-12.24,18.89-27.07,27.3-23.02,13.05-62.17,8.89-84.6-12.13-2.97-2.78-25-24.03-16.92-45.5,6.73-17.87,29.97-24.34,40.61-27.3,26.19-7.28,38.09,.39,64.3,0,38.26-.58,66.98-17.75,108.29-42.47,42.8-25.6,41.35-35.36,64.3-42.47,37.75-11.68,87.31-2.03,118.44,24.27,40.39,34.12,40.54,88.96,40.61,115.26,.06,21.27-3.83,30.41,0,54.6,5.15,32.54,15.96,39.85,13.54,60.66-2.29,19.68-15.71,45.49-40.61,54.6-40.48,14.8-96.01-20.16-101.52-51.56-2.34-13.35,5.27-20.83,3.38-51.56Z"/><g><path class="cls-38" d="M1130.06,494.98c2.39,4.19-29,34.88-62.1,30.25-20.45-2.86-39.18-17.83-36.75-25.11,1.09-3.27,15.91-4.67,45.49-7.32,46.35-4.16,16.24,2,50.08,1.47,1.26-.02,2.85-.05,3.29,.71Z"/><path class="cls-14" d="M1115.31,498.04c-9.71,10.04-45.15,17.85-44.13,21.66,.79,2.93,22.99,2.56,36.07-4.68,8.07-4.47,13.04-9.66,13.04-9.66,1.91-1.97,2.36-2.82,4.88-5.19,3.31-3.11,5.22-4.17,4.88-5.19-.43-1.28-3.79-1.82-6.58-1.42-4.59,.66-7.55,3.84-8.17,4.47Z"/><path class="cls-20" d="M1130.06,494.98c.41,.2-.62,2.55-.79,2.95-2.04,4.66-16.69,24.11-45.71,27.56-16.45,1.95-33.59-1.7-33.69-4.17-.04-.98,2.61-1.91,4.08-2.24,4.6-1.04,6.91,1.63,13.16,2.85,2.31,.45,6.19,.27,13.95-.1,5.59-.27,8.39-.4,10.66-.81,6.97-1.27,11.82-3.94,15.54-6,7.51-4.15,12.13-8.74,13.04-9.66,2.69-2.73,4.88-5.19,4.88-5.19,2.9-3.26,4.47-5.39,4.88-5.19Z"/><path class="cls-3" d="M1043.15,503.29c1.69,3.52,2.2,5.16,1.39,6.02-.2,.21-.3,.18-1.33,1.01-1.07,.86-1.2,1.08-1.7,1.25-.85,.3-1.05-.13-1.99,.08-1.25,.27-1.24,1.07-2.57,1.46-.21,.06-1.25,.34-2.28-.03-.63-.23-1.12-.65-1.91-1.88-.57-.87-1.16-1.96-2-4.2-.89-2.35-1.01-3.22-1.05-3.68-.12-1.17-.18-1.75,.12-2.4,.62-1.33,2.23-1.86,4.46-2.57,2.63-.83,3.95-1.25,5.1-.87,.48,.16,1.27,.53,3.79,5.8Z"/><path class="cls-3" d="M1057.96,498.35c1.69,3.52,2.2,5.16,1.39,6.02-.2,.21-.3,.18-1.33,1.01-1.07,.86-1.2,1.08-1.7,1.25-.85,.3-1.05-.13-1.99,.08-1.25,.27-1.24,1.07-2.57,1.46-.21,.06-1.25,.34-2.28-.03-.63-.23-1.12-.65-1.91-1.88-.57-.87-1.16-1.96-2-4.2-.89-2.35-1.01-3.22-1.05-3.68-.12-1.17-.18-1.75,.12-2.4,.62-1.33,2.23-1.86,4.46-2.57,2.63-.83,3.95-1.25,5.1-.87,.48,.16,1.27,.53,3.79,5.8Z"/><path class="cls-15" d="M1083.37,494.48c1.69,3.52,2.2,5.16,1.39,6.02-.2,.21-.3,.18-1.33,1.01-1.07,.86-1.2,1.08-1.7,1.25-.85,.3-1.05-.13-1.99,.08-1.25,.27-1.24,1.07-2.57,1.46-.21,.06-1.25,.34-2.28-.03-.63-.23-1.12-.65-1.91-1.88-.57-.87-1.16-1.96-2-4.2-.89-2.35-1.01-3.22-1.05-3.68-.12-1.17-.18-1.75,.12-2.4,.62-1.33,2.23-1.86,4.46-2.57,2.63-.83,3.95-1.25,5.1-.87,.48,.16,1.27,.53,3.79,5.8Z"/><path class="cls-3" d="M1096.58,492.71c1.29,2.69,1.67,3.94,1.06,4.59-.15,.16-.23,.14-1.02,.77-.82,.66-.92,.82-1.3,.96-.64,.23-.8-.1-1.52,.06-.95,.2-.94,.82-1.96,1.11-.16,.05-.95,.26-1.74-.03-.48-.17-.85-.5-1.46-1.43-.43-.67-.88-1.5-1.52-3.2-.67-1.8-.77-2.45-.8-2.81-.09-.89-.14-1.34,.09-1.83,.47-1.01,1.7-1.42,3.4-1.96,2.01-.63,3.01-.95,3.89-.66,.37,.12,.97,.41,2.89,4.42Z"/><path class="cls-20" d="M1130.06,494.98c.29-2.06-27.02-6.75-53.23-8.2-35.88-1.99-44.36,3.47-47.73,8.21-.75,1.05-2.76,3.89-1.59,5.9,3.02,5.15,23.12-1.94,49.83-5.01,32.22-3.71,52.47,.9,52.72-.89Z"/></g></g><g class="cls-28"><ellipse class="cls-24" cx="126.49" cy="131.01" rx="59" ry="81.48" transform="translate(-54.14 154.15) rotate(-53.31)"/><ellipse class="cls-9" cx="181.85" cy="166.43" rx="5.62" ry="4.68" transform="translate(-60.26 212.8) rotate(-53.31)"/><ellipse class="cls-9" cx="162.74" cy="163.86" rx="5.62" ry="4.68" transform="translate(-65.89 196.44) rotate(-53.31)"/><ellipse class="cls-9" cx="170.66" cy="181.44" rx="5.62" ry="4.68" transform="translate(-76.8 209.87) rotate(-53.31)"/><g class="cls-37"><path class="cls-18" d="M70.19,67.63l.19-1.39c20.19,2.72,50.25,10.6,78.73,32.87,16.32,12.74,29.91,28.39,40.4,46.53l-1.22,.7c-10.4-17.98-23.87-33.5-40.05-46.13-28.24-22.11-58.04-29.89-78.05-32.58Z"/></g><g class="cls-37"><path class="cls-18" d="M63.54,75.95l.19-1.39c20.18,2.71,50.23,10.6,78.73,32.87,16.32,12.74,29.91,28.39,40.4,46.53l-1.22,.7c-10.4-17.98-23.88-33.5-40.05-46.13-28.24-22.06-58.04-29.89-78.05-32.58Z"/></g><g class="cls-37"><path class="cls-18" d="M98.2,170.25c-27.65-20.61-42.88-46.2-50.85-64.32l1.29-.56c8.17,18.58,24.09,45.14,53.26,65.84,16.73,11.88,35.51,20.28,55.82,24.96l-.32,1.37c-20.49-4.72-39.44-13.19-56.32-25.18-.98-.69-1.94-1.39-2.88-2.1Z"/></g><g class="cls-37"><path class="cls-18" d="M56.83,84.96l.19-1.39c20.18,2.71,50.22,10.62,78.73,32.87,16.32,12.74,29.91,28.39,40.4,46.53l-1.22,.7c-10.4-17.98-23.88-33.5-40.05-46.13-28.23-22.07-58.04-29.89-78.05-32.58Z"/></g><g class="cls-37"><path class="cls-18" d="M81.86,63.91l.19-1.39c20.19,2.71,50.23,10.62,78.73,32.87,16.32,12.74,29.91,28.39,40.4,46.53l-1.22,.7c-10.4-17.98-23.88-33.5-40.05-46.13-28.24-22.1-58.04-29.89-78.05-32.58Z"/></g><g class="cls-37"><path class="cls-18" d="M104.09,162.33c-27.65-20.6-42.88-46.2-50.85-64.32l1.29-.56c8.17,18.58,24.03,45.08,53.26,65.84,16.73,11.88,35.51,20.28,55.82,24.96l-.32,1.37c-20.49-4.72-39.44-13.19-56.31-25.18-.98-.69-1.94-1.4-2.89-2.1Z"/></g><g class="cls-37"><path class="cls-18" d="M107.42,148.46c-27.65-20.6-42.88-46.2-50.85-64.32l1.29-.56c8.17,18.58,24,45.11,53.26,65.84,16.73,11.88,35.51,20.28,55.82,24.96l-.32,1.37c-20.49-4.72-39.44-13.19-56.31-25.18-.98-.69-1.94-1.4-2.89-2.1Z"/></g></g><g class="cls-25"><ellipse class="cls-24" cx="1787.55" cy="597.81" rx="81.48" ry="59" transform="translate(195.47 1606.76) rotate(-50.86)"/><ellipse class="cls-9" cx="1825.3" cy="544.01" rx="4.68" ry="5.62" transform="translate(251.11 1616.21) rotate(-50.86)"/><ellipse class="cls-9" cx="1821.93" cy="562.99" rx="4.68" ry="5.62" transform="translate(235.14 1620.59) rotate(-50.86)"/><ellipse class="cls-9" cx="1839.83" cy="555.83" rx="4.68" ry="5.62" transform="translate(247.3 1631.83) rotate(-50.86)"/><g class="cls-37"><path class="cls-18" d="M1721.83,651.34l-1.38-.25c3.58-20.05,12.74-49.75,36.2-77.25,13.42-15.76,29.64-28.67,48.21-38.37l.65,1.25c-18.41,9.62-34.49,22.42-47.8,38.04-23.29,27.27-32.34,56.71-35.89,76.59Z"/></g><g class="cls-37"><path class="cls-18" d="M1729.85,658.34l-1.38-.25c3.57-20.05,12.74-49.73,36.2-77.25,13.42-15.76,29.64-28.67,48.21-38.37l.65,1.25c-18.41,9.62-34.49,22.42-47.8,38.04-23.25,27.27-32.34,56.71-35.89,76.59Z"/></g><g class="cls-37"><path class="cls-18" d="M1825.55,627.75c-21.77,26.75-47.99,40.87-66.44,48.05l-.51-1.31c18.91-7.37,46.12-22.14,68.06-50.4,12.59-16.2,21.78-34.61,27.32-54.7l1.35,.38c-5.59,20.27-14.87,38.84-27.56,55.19-.73,.95-1.48,1.88-2.22,2.79Z"/></g><g class="cls-37"><path class="cls-18" d="M1738.57,665.44l-1.38-.25c3.57-20.05,12.76-49.72,36.2-77.25,13.42-15.76,29.64-28.67,48.21-38.37l.65,1.25c-18.41,9.62-34.49,22.42-47.8,38.04-23.26,27.26-32.34,56.71-35.89,76.59Z"/></g><g class="cls-37"><path class="cls-18" d="M1718.6,639.53l-1.38-.25c3.57-20.05,12.76-49.73,36.2-77.25,13.42-15.76,29.64-28.67,48.21-38.37l.65,1.25c-18.41,9.62-34.49,22.42-47.8,38.04-23.29,27.27-32.34,56.71-35.89,76.59Z"/></g><g class="cls-37"><path class="cls-18" d="M1817.89,621.52c-21.77,26.74-47.99,40.86-66.43,48.05l-.51-1.31c18.91-7.36,46.06-22.08,68.06-50.4,12.59-16.2,21.78-34.61,27.32-54.7l1.35,.38c-5.59,20.27-14.87,38.84-27.57,55.19-.74,.95-1.48,1.88-2.23,2.8Z"/></g><g class="cls-37"><path class="cls-18" d="M1804.17,617.6c-21.77,26.74-47.99,40.86-66.43,48.05l-.51-1.31c18.91-7.36,46.09-22.05,68.06-50.4,12.59-16.2,21.78-34.61,27.32-54.7l1.35,.38c-5.59,20.27-14.87,38.84-27.57,55.19-.74,.95-1.48,1.88-2.23,2.8Z"/></g></g><g class="cls-27"><ellipse class="cls-24" cx="457.32" cy="968.39" rx="81.48" ry="59" transform="translate(-461.77 418.66) rotate(-33.84)"/><ellipse class="cls-9" cx="509.16" cy="928" rx="4.68" ry="5.62" transform="translate(-430.5 440.69) rotate(-33.84)"/><ellipse class="cls-9" cx="500.37" cy="945.17" rx="4.68" ry="5.62" transform="translate(-441.54 438.7) rotate(-33.84)"/><ellipse class="cls-9" cx="519.59" cy="943.56" rx="4.68" ry="5.62" transform="translate(-437.39 449.13) rotate(-33.84)"/><g class="cls-37"><path class="cls-18" d="M378.8,1000.34l-1.25-.64c9.29-18.13,26.75-43.84,57.23-63.27,17.45-11.14,36.74-18.74,57.33-22.58l.26,1.38c-20.42,3.81-39.54,11.34-56.84,22.39-30.26,19.26-47.53,44.76-56.73,62.73Z"/></g><g class="cls-37"><path class="cls-18" d="M384.42,1009.39l-1.25-.64c9.29-18.13,26.74-43.83,57.23-63.27,17.45-11.14,36.74-18.73,57.33-22.58l.26,1.38c-20.42,3.81-39.54,11.34-56.84,22.39-30.21,19.27-47.52,44.76-56.73,62.73Z"/></g><g class="cls-37"><path class="cls-18" d="M484.89,1008.14c-28.65,19.2-57.85,25.03-77.59,26.5l-.1-1.4c20.24-1.51,50.58-7.67,79.83-28.27,16.78-11.81,30.95-26.72,42.13-44.31l1.18,.76c-11.28,17.74-25.58,32.78-42.51,44.7-.98,.69-1.96,1.36-2.94,2.02Z"/></g><g class="cls-37"><path class="cls-18" d="M390.68,1018.73l-1.25-.64c9.29-18.13,26.75-43.81,57.23-63.27,17.45-11.14,36.74-18.73,57.33-22.58l.26,1.38c-20.42,3.81-39.54,11.34-56.84,22.39-30.22,19.26-47.52,44.76-56.73,62.73Z"/></g><g class="cls-37"><path class="cls-18" d="M379.17,988.11l-1.25-.64c9.29-18.13,26.76-43.82,57.23-63.27,17.45-11.14,36.74-18.73,57.33-22.58l.26,1.38c-20.42,3.81-39.54,11.34-56.84,22.39-30.25,19.26-47.53,44.76-56.73,62.73Z"/></g><g class="cls-37"><path class="cls-18" d="M479.38,999.95c-28.64,19.2-57.85,25.03-77.59,26.5l-.1-1.4c20.24-1.51,50.51-7.63,79.83-28.27,16.78-11.81,30.96-26.72,42.14-44.31l1.18,.76c-11.28,17.74-25.58,32.78-42.51,44.7-.98,.69-1.96,1.36-2.95,2.02Z"/></g><g class="cls-37"><path class="cls-18" d="M467.42,992.19c-28.64,19.2-57.85,25.03-77.59,26.5l-.1-1.4c20.24-1.51,50.53-7.59,79.83-28.27,16.78-11.81,30.96-26.72,42.14-44.31l1.18,.76c-11.28,17.74-25.58,32.78-42.51,44.7-.98,.69-1.96,1.36-2.95,2.02Z"/></g></g><g class="cls-26"><ellipse class="cls-24" cx="1880.41" cy="1055.13" rx="59" ry="81.48" transform="translate(-236.38 1465.56) rotate(-40.27)"/><ellipse class="cls-9" cx="1834.46" cy="1008.13" rx="5.62" ry="4.68" transform="translate(-216.89 1424.72) rotate(-40.27)"/><ellipse class="cls-9" cx="1852.5" cy="1014.94" rx="5.62" ry="4.68" transform="translate(-217.01 1437.99) rotate(-40.27)"/><ellipse class="cls-9" cx="1848.75" cy="996.03" rx="5.62" ry="4.68" transform="translate(-205.68 1431.09) rotate(-40.27)"/><g class="cls-37"><path class="cls-18" d="M1920.95,1129.57l-.5,1.31c-19.05-7.2-46.57-21.67-69.29-49.78-13.02-16.09-22.73-34.41-28.86-54.44l1.34-.41c6.08,19.87,15.7,38.02,28.61,53.97,22.53,27.91,49.8,42.21,68.69,49.35Z"/></g><g class="cls-37"><path class="cls-18" d="M1929.31,1122.96l-.5,1.31c-19.05-7.2-46.55-21.66-69.29-49.78-13.02-16.09-22.73-34.41-28.86-54.44l1.34-.41c6.08,19.86,15.7,38.02,28.61,53.97,22.53,27.86,49.8,42.21,68.69,49.35Z"/></g><g class="cls-37"><path class="cls-18" d="M1916.82,1023.28c22.29,26.31,31.36,54.68,35.03,74.14l-1.38,.26c-3.77-19.94-13.29-49.41-37.04-76.16-13.62-15.35-30.02-27.76-48.75-36.9l.62-1.26c18.9,9.22,35.44,21.75,49.18,37.23,.79,.89,1.57,1.8,2.34,2.7Z"/></g><g class="cls-37"><path class="cls-18" d="M1937.89,1115.7l-.5,1.31c-19.05-7.2-46.53-21.67-69.29-49.78-13.02-16.09-22.73-34.41-28.86-54.44l1.34-.41c6.08,19.86,15.7,38.02,28.61,53.97,22.53,27.87,49.8,42.21,68.69,49.35Z"/></g><g class="cls-37"><path class="cls-18" d="M1908.75,1130.57l-.5,1.31c-19.05-7.2-46.54-21.68-69.29-49.78-13.02-16.09-22.73-34.41-28.86-54.44l1.34-.41c6.08,19.86,15.7,38.02,28.61,53.97,22.53,27.9,49.8,42.21,68.69,49.35Z"/></g><g class="cls-37"><path class="cls-18" d="M1909.29,1029.66c22.29,26.31,31.35,54.68,35.03,74.13l-1.38,.26c-3.76-19.94-13.24-49.33-37.04-76.16-13.62-15.35-30.02-27.77-48.75-36.91l.62-1.26c18.9,9.22,35.45,21.75,49.18,37.23,.8,.9,1.58,1.8,2.34,2.7Z"/></g><g class="cls-37"><path class="cls-18" d="M1902.92,1042.42c22.29,26.31,31.35,54.68,35.03,74.13l-1.38,.26c-3.76-19.94-13.21-49.36-37.04-76.16-13.62-15.35-30.02-27.77-48.75-36.91l.62-1.26c18.9,9.22,35.45,21.75,49.18,37.23,.8,.9,1.58,1.8,2.34,2.7Z"/></g></g></svg>